<svg width="864" height="892" viewBox="0 0 864 892" fill="none" xmlns="http://www.w3.org/2000/svg">
<rect width="864" height="892" fill="#C4C4C4"/>
<rect x="265" y="221" width="106" height="342" fill="#34A3B2"/>
<rect x="382" y="355" width="113" height="208" fill="#FF9045"/>
<rect y="575" width="164" height="158" fill="#34A3B2"/>
<rect x="458" y="199" width="61" height="59" fill="#F44719"/>
<rect x="525" y="199" width="61" height="59" fill="#34A3B2"/>
<rect x="592" y="199" width="61" height="59" fill="#FF9045"/>
<rect x="659" y="199" width="60" height="59" fill="#34A3B2"/>
<rect x="507" y="413" width="39" height="99" fill="#34A3B2"/>
<rect x="561" y="413" width="40" height="99" fill="#34A3B2"/>
<rect x="614" y="413" width="40" height="99" fill="#34A3B2"/>
<rect x="669" y="413" width="41" height="99" fill="#34A3B2"/>
<rect x="725" y="413" width="40" height="99" fill="#34A3B2"/>
<rect x="781" y="413" width="40" height="99" fill="#34A3B2"/>
<rect y="470" width="253" height="93" fill="#F44719"/>
<rect x="683" y="355" width="181" height="46" fill="#F44719"/>
<rect x="505" y="270" width="166" height="131" fill="#F44719"/>
<rect x="176" y="575" width="77" height="158" fill="#34A3B2"/>
<rect x="833" y="413" width="31" height="320" fill="#34A3B2"/>
<rect y="745" width="382" height="97" fill="#F44719"/>
<rect x="394" y="745" width="101" height="97" fill="#FF9045"/>
<rect x="265" y="575" width="228" height="158" fill="#F44719"/>
<rect x="505" y="524" width="251" height="152" fill="#F44719"/>
<rect x="507" y="688" width="249" height="154" fill="#34A3B2"/>
<rect x="768" y="524" width="53" height="209" fill="#FF9045"/>
<path fill-rule="evenodd" clip-rule="evenodd" d="M273 130H229V209H405V130H360V162H338V130H295V162H273V130Z" fill="#34A3B2"/>
<rect x="768" y="744.988" width="96" height="97.0105" fill="#34A3B2"/>
<path fill-rule="evenodd" clip-rule="evenodd" d="M794.452 755.594H786.805V759.765H782.634V755.595H774.987V763.241H774.988V772.972H777.766V782.705V792.437V834.146H853.537V794.523H853.541V772.972H856.318V763.24H856.319V755.594H848.673V759.765H845.199V755.594H837.552V759.765H833.379V755.594H825.732V759.765V763.24V772.972H828.515V782.705H802.791V772.972H805.574V759.765H805.573V755.594H797.926V759.765H794.452V755.594ZM830.595 809.119C830.597 809.004 830.599 808.887 830.599 808.771C830.599 800.517 823.907 793.825 815.653 793.825C807.399 793.825 800.707 800.517 800.707 808.771C800.707 808.887 800.709 809.004 800.711 809.119H800.706V834.145H830.597V809.119H830.595Z" fill="black"/>
</svg>
