<svg width="864" height="892" viewBox="0 0 864 892" fill="none" xmlns="http://www.w3.org/2000/svg">
<rect width="864" height="892" fill="#C4C4C4"/>
<rect x="768" y="569" width="96" height="164" fill="#FF9045"/>
<rect x="768" y="744.988" width="96" height="97.0105" fill="#34A3B2"/>
<path fill-rule="evenodd" clip-rule="evenodd" d="M794.452 755.594H786.806V759.765H782.634V755.595H774.988V763.241H774.988V772.972H777.767V782.705V792.437V834.146H853.537V794.523H853.541V772.972H856.319V763.24H856.32V755.594H848.673V759.765H845.199V755.594H837.553V759.765H833.379V755.594H825.732V759.765V763.24V772.972H828.516V782.705H802.792V772.972H805.574V759.765H805.573V755.594H797.927V759.765H794.452V755.594ZM830.595 809.119C830.598 809.004 830.599 808.887 830.599 808.771C830.599 800.517 823.908 793.825 815.653 793.825C807.399 793.825 800.708 800.517 800.708 808.771C800.708 808.887 800.709 809.004 800.712 809.119H800.706V834.145H830.597V809.119H830.595Z" fill="black"/>
<rect x="629" y="700" width="125" height="142" fill="#FF9045"/>
<rect x="356" y="569" width="78" height="273" fill="#34A3B2"/>
<rect x="629" y="569" width="125" height="122" fill="#34A3B2"/>
<rect x="443" y="756" width="177" height="85" fill="#F44719"/>
<circle cx="533" cy="661" r="87" fill="#FF9045"/>
<path d="M555 396L754 555H356L555 396Z" fill="#F44719"/>
<rect y="459" width="99" height="232" fill="#FF9045"/>
<rect y="407" width="356" height="43" fill="#F44719"/>
<circle cx="227.5" cy="573.5" r="114.5" fill="#34A3B2"/>
<path fill-rule="evenodd" clip-rule="evenodd" d="M342 701H0V842H74.9249C83.836 798.673 123.337 766.019 170.717 766.019C218.097 766.019 257.598 798.673 266.509 842H342V701Z" fill="#F44719"/>
<path d="M180 190L356 398H4L180 190Z" fill="#34A3B2"/>
</svg>
