<svg width="864" height="892" viewBox="0 0 864 892" fill="none" xmlns="http://www.w3.org/2000/svg">
<path d="M0 0H864V892H0V0Z" fill="#C4C4C4"/>
<path d="M736 464H864V605H736V464Z" fill="#F44719"/>
<path d="M214 464H515V605H214V464Z" fill="#F44719"/>
<path d="M669 617H756V842H669V617Z" fill="#FF9045"/>
<path d="M768 617H864V733H768V617Z" fill="#34A3B2"/>
<path d="M768 744.988H864V841.999H768V744.988Z" fill="#34A3B2"/>
<path fill-rule="evenodd" clip-rule="evenodd" d="M794.452 755.594H786.805V759.765H782.634V755.595H774.987V763.241H774.988V772.972H777.766V782.705V792.437V834.146H853.537V794.523H853.541V772.972H856.318V763.24H856.319V755.594H848.673V759.765H845.199V755.594H837.552V759.765H833.379V755.594H825.732V759.765V763.24V772.972H828.515V782.705H802.791V772.972H805.574V759.765H805.573V755.594H797.926V759.765H794.452V755.594ZM830.595 809.119C830.597 809.004 830.599 808.887 830.599 808.771C830.599 800.517 823.907 793.825 815.653 793.825C807.399 793.825 800.707 800.517 800.707 808.771C800.707 808.887 800.709 809.004 800.711 809.119H800.706V834.145H830.597V809.119H830.595Z" fill="black"/>
<path fill-rule="evenodd" clip-rule="evenodd" d="M657.961 842C657.961 841.794 657.961 841.588 657.961 841.381C657.961 717.459 558.577 617 435.981 617C313.384 617 214 717.459 214 841.381C214 841.588 214 841.794 214.001 842H325.297C325.295 841.794 325.295 841.588 325.295 841.382C325.295 779.592 374.85 729.5 435.98 729.5C497.109 729.5 546.664 779.592 546.664 841.382C546.664 841.588 546.664 841.794 546.663 842H657.961Z" fill="#F44719"/>
<path d="M0 464H202V842H0V464Z" fill="#FF9045"/>
<path fill-rule="evenodd" clip-rule="evenodd" d="M659 733V616.999H543L659 733Z" fill="#34A3B2"/>
<path fill-rule="evenodd" clip-rule="evenodd" d="M214 733V616.999H330L214 733Z" fill="#FF9045"/>
<path fill-rule="evenodd" clip-rule="evenodd" d="M514 269V451.042H273L514 269Z" fill="#34A3B2"/>
<path d="M623.5 46L721 198H526L623.5 46Z" fill="#34A3B2"/>
<path fill-rule="evenodd" clip-rule="evenodd" d="M725.967 209H526V605.15H725.967V209ZM625.983 425.368C666.222 425.368 698.842 392.748 698.842 352.509C698.842 312.27 666.222 279.65 625.983 279.65C585.745 279.65 553.125 312.27 553.125 352.509C553.125 392.748 585.745 425.368 625.983 425.368Z" fill="#FF9045"/>
</svg>
