<svg width="367" height="601" viewBox="0 0 367 601" fill="none" xmlns="http://www.w3.org/2000/svg">
<rect width="367" height="601" fill="#C4C4C4"/>
<rect x="60" y="372" width="155" height="52" fill="#F44719"/>
<rect x="239.271" y="549" width="51.4583" height="52" fill="#34A3B2"/>
<path fill-rule="evenodd" clip-rule="evenodd" d="M247.116 554.684H243.017V556.92H243.017V563.999H244.507V569.217H244.506V596.791H256.802V583.377H256.806C256.805 583.315 256.804 583.253 256.804 583.191C256.804 578.767 260.391 575.18 264.815 575.18C269.239 575.18 272.826 578.767 272.826 583.191C272.826 583.253 272.825 583.315 272.824 583.377H272.824V596.791H285.121V575.552H285.125V563.999H286.612V556.92H286.612V554.685H282.513V556.92H280.653V554.685H276.554V556.92H274.316V554.685H270.217V556.92V558.783V563.999H271.711V569.217H257.921V563.999H259.412V556.92H259.411V554.685H255.312V556.92H253.45V554.685H249.351V556.92H247.116V554.684Z" fill="black"/>
<rect x="223" y="189" width="72" height="235" fill="#34A3B2"/>
<rect x="60" y="290" width="155" height="76" fill="#FF9045"/>
<path d="M60.4185 430.51L164.633 430.796L59.9848 535.602L60.4185 430.51Z" fill="#FF9045"/>
<path d="M295.509 431.058L296.068 536.149L191.295 431.47L295.509 431.058Z" fill="#FF9045"/>
<path d="M177.5 428L291.382 542H63.6177L177.5 428Z" fill="#34A3B2"/>
<rect x="170" y="549" width="63" height="52" fill="#F44719"/>
<rect x="296" y="549" width="71" height="52" fill="#F44719"/>
<rect x="60" y="549" width="104" height="52" fill="#34A3B2"/>
<rect x="302" y="382" width="65" height="160" fill="#34A3B2"/>
<rect x="302" y="324" width="65" height="51" fill="#F44719"/>
<rect x="60" y="249" width="35" height="34" fill="#F44719"/>
<rect x="101" y="249" width="34" height="34" fill="#34A3B2"/>
<rect x="140" y="249" width="34" height="34" fill="#FF9045"/>
<rect x="180" y="249" width="35" height="34" fill="#34A3B2"/>
<path fill-rule="evenodd" clip-rule="evenodd" d="M236.25 140H213V181.744H306V140H282.221V156.909H270.596V140H247.875V156.909H236.25V140Z" fill="#34A3B2"/>
</svg>
