<svg width="367" height="601" viewBox="0 0 367 601" fill="none" xmlns="http://www.w3.org/2000/svg">
<rect width="367" height="601" fill="#C4C4C4"/>
<rect x="239.271" y="549" width="51.4583" height="52" fill="#34A3B2"/>
<path fill-rule="evenodd" clip-rule="evenodd" d="M247.116 554.684H243.017V556.92H243.017V563.999H244.507V569.217H244.506V596.791H256.802V583.377H256.806C256.805 583.315 256.804 583.253 256.804 583.191C256.804 578.767 260.391 575.18 264.815 575.18C269.239 575.18 272.826 578.767 272.826 583.191C272.826 583.253 272.825 583.315 272.824 583.377H272.824V596.791H285.121V575.552H285.125V563.999H286.612V556.92H286.612V554.685H282.513V556.92H280.653V554.685H276.554V556.92H274.316V554.685H270.217V556.92V558.783V563.999H271.711V569.217H257.921V563.999H259.412V556.92H259.411V554.685H255.312V556.92H253.45V554.685H249.351V556.92H247.116V554.684Z" fill="black"/>
<rect x="60" y="549" width="173" height="52" fill="#FF9045"/>
<rect x="296" y="549" width="71" height="52" fill="#FF9045"/>
<rect x="166" y="336" width="130" height="88" fill="#F44719"/>
<rect x="166" y="255" width="130" height="76" fill="#34A3B2"/>
<rect x="60" y="255" width="99" height="169" fill="#FF9045"/>
<rect x="303" y="354" width="64" height="188" fill="#FF9045"/>
<path d="M178 140L296 248H60L178 140Z" fill="#34A3B2"/>
<path fill-rule="evenodd" clip-rule="evenodd" d="M295 431H60V542H111.484C117.607 507.892 144.749 482.185 177.306 482.185C209.862 482.185 237.004 507.892 243.128 542H295V431Z" fill="#F44719"/>
</svg>
