<svg width="1257" height="892" viewBox="0 0 1257 892" fill="none" xmlns="http://www.w3.org/2000/svg">
<rect width="1257" height="892" fill="#C4C4C4"/>
<rect x="143" y="567" width="141" height="135" fill="#34A3B2"/>
<rect y="567" width="129" height="135" fill="#FF9045"/>
<rect x="988" y="464" width="268" height="141" fill="#F44719"/>
<rect x="1128" y="745" width="128" height="97" fill="#F44719"/>
<rect x="466" y="464" width="301" height="141" fill="#F44719"/>
<rect x="921" y="617" width="87" height="225" fill="#FF9045"/>
<rect x="1020" y="617" width="236" height="116" fill="#34A3B2"/>
<rect y="716" width="284" height="126" fill="#34A3B2"/>
<rect x="1020" y="744.989" width="96" height="97.0105" fill="#34A3B2"/>
<path fill-rule="evenodd" clip-rule="evenodd" d="M1046.45 755.594H1038.81V759.765H1034.63V755.595H1026.99V763.241H1026.99V772.972H1029.77V782.705V792.437V834.146H1105.54V794.523H1105.54V772.972H1108.32V763.24H1108.32V755.594H1100.67V759.765H1097.2V755.594H1089.55V759.765H1085.38V755.594H1077.73V759.765V763.24V772.972H1080.52V782.705H1054.79V772.972H1057.57V759.765H1057.57V755.594H1049.93V759.765H1046.45V755.594ZM1082.6 809.119C1082.6 809.004 1082.6 808.887 1082.6 808.771C1082.6 800.517 1075.91 793.825 1067.65 793.825C1059.4 793.825 1052.71 800.517 1052.71 808.771C1052.71 808.887 1052.71 809.004 1052.71 809.119H1052.71V834.145H1082.6V809.119H1082.6Z" fill="black"/>
<path fill-rule="evenodd" clip-rule="evenodd" d="M909.961 842C909.961 841.794 909.961 841.588 909.961 841.381C909.961 717.459 810.577 617 687.981 617C565.384 617 466 717.459 466 841.381C466 841.588 466 841.794 466.001 842H577.297C577.295 841.794 577.295 841.588 577.295 841.382C577.295 779.592 626.85 729.5 687.98 729.5C749.109 729.5 798.664 779.592 798.664 841.382C798.664 841.588 798.664 841.794 798.663 842H909.961Z" fill="#F44719"/>
<rect x="297" y="464" width="157" height="378" fill="#FF9045"/>
<path fill-rule="evenodd" clip-rule="evenodd" d="M911 733.001V617H795L911 733.001Z" fill="#34A3B2"/>
<path fill-rule="evenodd" clip-rule="evenodd" d="M466 733.001V617H582L466 733.001Z" fill="#FF9045"/>
<path fill-rule="evenodd" clip-rule="evenodd" d="M766 269V451.042H525L766 269Z" fill="#34A3B2"/>
<path fill-rule="evenodd" clip-rule="evenodd" d="M975.349 180H780V605H975.349V180ZM877.674 412.125C916.983 412.125 948.85 377.13 948.85 333.96C948.85 290.791 916.983 255.796 877.674 255.796C838.365 255.796 806.498 290.791 806.498 333.96C806.498 377.13 838.365 412.125 877.674 412.125Z" fill="#FF9045"/>
<path d="M877.81 17L975.31 169H780.31L877.81 17Z" fill="#34A3B2"/>
<path fill-rule="evenodd" clip-rule="evenodd" d="M988 451.369C988 451.246 988 451.123 988 451C988 376.994 1047.99 317 1122 317C1196.01 317 1256 376.994 1256 451C1256 451.123 1256 451.246 1256 451.369H1188.81C1188.82 451.246 1188.82 451.124 1188.82 451.001C1188.82 414.1 1158.9 384.186 1122 384.186C1085.1 384.186 1055.18 414.1 1055.18 451.001C1055.18 451.124 1055.18 451.246 1055.19 451.369H988Z" fill="#FF9045"/>
</svg>
