<svg width="1116" height="892" viewBox="0 0 1116 892" fill="none" xmlns="http://www.w3.org/2000/svg">
<rect width="1116" height="892" fill="#C4C4C4"/>
<rect x="517" y="221" width="106" height="342" fill="#34A3B2"/>
<rect x="634" y="355" width="113" height="208" fill="#FF9045"/>
<rect x="99" y="428" width="141" height="135" fill="#34A3B2"/>
<rect x="14" y="208" width="61" height="59" fill="#F44719"/>
<rect x="710" y="199" width="61" height="59" fill="#F44719"/>
<rect x="81" y="208" width="61" height="59" fill="#34A3B2"/>
<rect x="777" y="199" width="61" height="59" fill="#34A3B2"/>
<rect x="148" y="208" width="61" height="59" fill="#FF9045"/>
<rect x="844" y="199" width="61" height="59" fill="#FF9045"/>
<rect x="215" y="208" width="60" height="59" fill="#34A3B2"/>
<rect x="911" y="199" width="60" height="59" fill="#34A3B2"/>
<rect x="49" y="279" width="139" height="137" fill="#FF9045"/>
<rect x="200" y="279" width="40" height="137" fill="#34A3B2"/>
<rect x="100" y="745" width="39" height="97" fill="#F44719"/>
<rect x="759" y="413" width="39" height="99" fill="#34A3B2"/>
<rect x="153" y="745" width="41" height="97" fill="#F44719"/>
<rect x="813" y="413" width="40" height="99" fill="#34A3B2"/>
<rect x="209" y="745" width="39" height="97" fill="#F44719"/>
<rect x="866" y="413" width="40" height="99" fill="#34A3B2"/>
<rect y="428" width="87" height="135" fill="#F44719"/>
<rect x="265" y="745" width="39" height="97" fill="#F44719"/>
<rect x="921" y="413" width="41" height="99" fill="#34A3B2"/>
<rect x="320" y="745" width="41" height="97" fill="#F44719"/>
<rect x="977" y="413" width="40" height="99" fill="#34A3B2"/>
<rect x="377" y="745" width="39" height="97" fill="#F44719"/>
<rect x="1033" y="413" width="40" height="99" fill="#34A3B2"/>
<rect x="252" y="470" width="253" height="93" fill="#F44719"/>
<rect x="935" y="355" width="181" height="46" fill="#F44719"/>
<rect x="757" y="270" width="166" height="131" fill="#F44719"/>
<rect x="428" y="575" width="77" height="158" fill="#34A3B2"/>
<rect x="1085" y="413" width="31" height="320" fill="#34A3B2"/>
<rect x="428" y="745" width="206" height="97" fill="#34A3B2"/>
<rect x="646" y="745" width="101" height="97" fill="#FF9045"/>
<rect x="517" y="575" width="228" height="158" fill="#F44719"/>
<rect x="757" y="524" width="251" height="152" fill="#F44719"/>
<rect x="759" y="688" width="249" height="154" fill="#34A3B2"/>
<rect y="575" width="87" height="267" fill="#34A3B2"/>
<rect x="1020" y="524" width="53" height="209" fill="#FF9045"/>
<path fill-rule="evenodd" clip-rule="evenodd" d="M525 130H481V209H657V130H612V162H590V130H547V162H525V130Z" fill="#34A3B2"/>
<rect x="1020" y="744.989" width="96" height="97.0105" fill="#34A3B2"/>
<path fill-rule="evenodd" clip-rule="evenodd" d="M1046.45 755.594H1038.81V759.765H1034.63V755.595H1026.99V763.241H1026.99V772.972H1029.77V782.705V792.437V834.146H1105.54V794.523H1105.54V772.972H1108.32V763.24H1108.32V755.594H1100.67V759.765H1097.2V755.594H1089.55V759.765H1085.38V755.594H1077.73V759.765V763.24V772.972H1080.52V782.705H1054.79V772.972H1057.57V759.765H1057.57V755.594H1049.93V759.765H1046.45V755.594ZM1082.59 809.119C1082.6 809.004 1082.6 808.887 1082.6 808.771C1082.6 800.517 1075.91 793.825 1067.65 793.825C1059.4 793.825 1052.71 800.517 1052.71 808.771C1052.71 808.887 1052.71 809.004 1052.71 809.119H1052.71V834.145H1082.6V809.119H1082.59Z" fill="black"/>
<path fill-rule="evenodd" clip-rule="evenodd" d="M272.166 575.024L416 717.798L416 717.798L416 717.798L416 717.798L416 575.024L272.166 575.024Z" fill="#FF9045"/>
<path fill-rule="evenodd" clip-rule="evenodd" d="M414.123 731.651L99.7059 732.814L257.496 575.024L414.123 731.651Z" fill="#34A3B2"/>
<path fill-rule="evenodd" clip-rule="evenodd" d="M98.9998 718.858L241.773 575.024L241.773 575.025L241.773 575.024L98.9998 575.024L98.9998 718.858Z" fill="#FF9045"/>
</svg>
