<svg width="1116" height="892" viewBox="0 0 1116 892" fill="none" xmlns="http://www.w3.org/2000/svg">
<rect width="1116" height="892" fill="#C4C4C4"/>
<rect x="1020" y="569" width="96" height="164" fill="#FF9045"/>
<rect x="1020" y="744.989" width="96" height="97.0105" fill="#34A3B2"/>
<path fill-rule="evenodd" clip-rule="evenodd" d="M1046.45 755.594H1038.81V759.765H1034.63V755.595H1026.99V763.241H1026.99V772.972H1029.77V782.705V792.437V834.146H1105.54V794.523H1105.54V772.972H1108.32V763.24H1108.32V755.594H1100.67V759.765H1097.2V755.594H1089.55V759.765H1085.38V755.594H1077.73V759.765V763.24V772.972H1080.52V782.705H1054.79V772.972H1057.57V759.765H1057.57V755.594H1049.93V759.765H1046.45V755.594ZM1082.6 809.119C1082.6 809.004 1082.6 808.887 1082.6 808.771C1082.6 800.517 1075.91 793.825 1067.65 793.825C1059.4 793.825 1052.71 800.517 1052.71 808.771C1052.71 808.887 1052.71 809.004 1052.71 809.119H1052.71V834.145H1082.6V809.119H1082.6Z" fill="black"/>
<rect x="881" y="700" width="125" height="142" fill="#FF9045"/>
<rect x="608" y="569" width="78" height="273" fill="#34A3B2"/>
<rect x="881" y="569" width="125" height="122" fill="#34A3B2"/>
<rect x="695" y="756" width="177" height="85" fill="#F44719"/>
<circle cx="785" cy="661" r="87" fill="#FF9045"/>
<path d="M807 396L1006 555H608L807 396Z" fill="#F44719"/>
<rect y="462" width="99" height="380" fill="#FF9045"/>
<rect x="1" y="409" width="449" height="43" fill="#F44719"/>
<circle cx="222.5" cy="576.5" r="114.5" fill="#34A3B2"/>
<path fill-rule="evenodd" clip-rule="evenodd" d="M450 701H108V842H182.925C191.836 798.673 231.337 766.019 278.717 766.019C326.097 766.019 365.598 798.673 374.509 842H450V701Z" fill="#F44719"/>
<path fill-rule="evenodd" clip-rule="evenodd" d="M450 462V691.002H296.998L450 462Z" fill="#34A3B2"/>
<path d="M433.706 463.24L362.274 570.581L304.774 464.296L433.706 463.24Z" fill="#FF9045"/>
<circle cx="529" cy="771" r="70" fill="#FF9045"/>
<rect x="459" y="525" width="140" height="166" fill="#F44719"/>
<path d="M223 191L445 399H1L223 191Z" fill="#34A3B2"/>
<path fill-rule="evenodd" clip-rule="evenodd" d="M459.06 449.369H459V514.754H599V449.369H598.94C597.405 396.33 566.679 354 529 354C491.321 354 460.596 396.33 459.06 449.369Z" fill="#FF9045"/>
</svg>
