<svg width="1116" height="892" viewBox="0 0 1116 892" fill="none" xmlns="http://www.w3.org/2000/svg">
<path d="M0 0H1116V892H0V0Z" fill="#C4C4C4"/>
<path d="M143 567H284V702H143V567Z" fill="#34A3B2"/>
<path d="M0 567H129V702H0V567Z" fill="#FF9045"/>
<path d="M988 464H1116V605H988V464Z" fill="#F44719"/>
<path d="M466 464H767V605H466V464Z" fill="#F44719"/>
<path d="M921 617H1008V842H921V617Z" fill="#FF9045"/>
<path d="M1020 617H1116V733H1020V617Z" fill="#34A3B2"/>
<path d="M0 716H284V842H0V716Z" fill="#34A3B2"/>
<path d="M1020 744.989H1116V842H1020V744.989Z" fill="#34A3B2"/>
<path fill-rule="evenodd" clip-rule="evenodd" d="M1046.45 755.594H1038.81V759.765H1034.63V755.595H1026.99V763.241H1026.99V772.972H1029.77V782.705V792.437V834.146H1105.54V794.523H1105.54V772.972H1108.32V763.24H1108.32V755.594H1100.67V759.765H1097.2V755.594H1089.55V759.765H1085.38V755.594H1077.73V759.765V763.24V772.972H1080.52V782.705H1054.79V772.972H1057.57V759.765H1057.57V755.594H1049.93V759.765H1046.45V755.594ZM1082.59 809.119C1082.6 809.004 1082.6 808.887 1082.6 808.771C1082.6 800.517 1075.91 793.825 1067.65 793.825C1059.4 793.825 1052.71 800.517 1052.71 808.771C1052.71 808.887 1052.71 809.004 1052.71 809.119H1052.71V834.145H1082.6V809.119H1082.59Z" fill="black"/>
<path fill-rule="evenodd" clip-rule="evenodd" d="M909.961 842C909.961 841.794 909.961 841.588 909.961 841.381C909.961 717.459 810.577 617 687.981 617C565.384 617 466 717.459 466 841.381C466 841.588 466 841.794 466.001 842H577.297C577.295 841.794 577.295 841.588 577.295 841.382C577.295 779.592 626.85 729.5 687.98 729.5C749.109 729.5 798.664 779.592 798.664 841.382C798.664 841.588 798.664 841.794 798.663 842H909.961Z" fill="#F44719"/>
<path d="M297 464H454V842H297V464Z" fill="#FF9045"/>
<path fill-rule="evenodd" clip-rule="evenodd" d="M911 733.001V617H795L911 733.001Z" fill="#34A3B2"/>
<path fill-rule="evenodd" clip-rule="evenodd" d="M466 733.001V617H582L466 733.001Z" fill="#FF9045"/>
<path fill-rule="evenodd" clip-rule="evenodd" d="M766 269V451.042H525L766 269Z" fill="#34A3B2"/>
<path d="M875.5 46L973 198H778L875.5 46Z" fill="#34A3B2"/>
<path fill-rule="evenodd" clip-rule="evenodd" d="M977.967 209H778V605.15H977.967V209ZM877.983 425.368C918.222 425.368 950.842 392.748 950.842 352.509C950.842 312.27 918.222 279.65 877.983 279.65C837.745 279.65 805.125 312.27 805.125 352.509C805.125 392.748 837.745 425.368 877.983 425.368Z" fill="#FF9045"/>
</svg>
