<svg width="1355" height="722" viewBox="0 0 1355 722" fill="none" xmlns="http://www.w3.org/2000/svg">
<path d="M374.647 235.721C429.863 140.093 299.011 140.093 354.227 235.721C299.011 140.093 233.585 253.412 344.017 253.412C233.593 253.412 299.011 366.73 354.227 271.094C299.011 366.722 429.863 366.722 374.647 271.094C429.863 366.722 495.281 253.412 384.857 253.412C495.281 253.412 429.855 140.093 374.647 235.721Z" fill="#F44719"/>
<path d="M949.647 486.721C1004.86 391.093 874.011 391.093 929.227 486.721C874.011 391.093 808.585 504.412 919.017 504.412C808.593 504.412 874.011 617.73 929.227 522.094C874.011 617.722 1004.86 617.722 949.647 522.094C1004.86 617.722 1070.28 504.412 959.857 504.412C1070.28 504.412 1004.86 391.093 949.647 486.721Z" fill="#FF9045"/>
<path d="M1284.65 614.721C1339.86 519.093 1209.01 519.093 1264.23 614.721C1209.01 519.093 1143.58 632.412 1254.02 632.412C1143.59 632.412 1209.01 745.73 1264.23 650.094C1209.01 745.722 1339.86 745.722 1284.65 650.094C1339.86 745.722 1405.28 632.412 1294.86 632.412C1405.28 632.412 1339.86 519.093 1284.65 614.721Z" fill="#FF9045"/>
<path d="M541.53 280.024C569.264 231.992 503.54 231.992 531.273 280.024C503.54 231.992 470.677 288.91 526.145 288.91C470.682 288.91 503.54 345.827 531.273 297.791C503.54 345.823 569.264 345.823 541.53 297.791C569.264 345.823 602.122 288.91 546.659 288.91C602.122 288.91 569.26 231.992 541.53 280.024Z" fill="#FF9045"/>
<path d="M773.53 654.024C801.264 605.992 735.54 605.992 763.273 654.024C735.54 605.992 702.677 662.91 758.145 662.91C702.682 662.91 735.54 719.827 763.273 671.791C735.54 719.823 801.264 719.823 773.53 671.791C801.264 719.823 834.122 662.91 778.659 662.91C834.122 662.91 801.26 605.992 773.53 654.024Z" fill="#34A3B2"/>
<path d="M457.53 50.024C485.264 1.99201 419.54 1.99201 447.273 50.024C419.54 1.99201 386.677 58.9096 442.145 58.9096C386.682 58.9096 419.54 115.827 447.273 67.791C419.54 115.823 485.264 115.823 457.53 67.791C485.264 115.823 518.122 58.9096 462.659 58.9096C518.122 58.9096 485.26 1.99201 457.53 50.024Z" fill="#34A3B2"/>
<path d="M1274.53 81.024C1302.26 32.992 1236.54 32.992 1264.27 81.024C1236.54 32.992 1203.68 89.9096 1259.15 89.9096C1203.68 89.9096 1236.54 146.827 1264.27 98.791C1236.54 146.823 1302.26 146.823 1274.53 98.791C1302.26 146.823 1335.12 89.9096 1279.66 89.9096C1335.12 89.9096 1302.26 32.992 1274.53 81.024Z" fill="#34A3B2"/>
<path d="M171.53 334.024C199.264 285.992 133.54 285.992 161.273 334.024C133.54 285.992 100.677 342.91 156.145 342.91C100.682 342.91 133.54 399.827 161.273 351.791C133.54 399.823 199.264 399.823 171.53 351.791C199.264 399.823 232.122 342.91 176.659 342.91C232.122 342.91 199.26 285.992 171.53 334.024Z" fill="#FF9045"/>
<path d="M639.26 139.933C649.163 116.022 609.247 116.022 619.15 139.933C609.247 116.022 581.022 144.247 604.933 154.15C581.022 144.247 581.022 184.163 604.933 174.26C581.022 184.163 609.247 212.388 619.15 188.477C609.247 212.388 649.163 212.388 639.26 188.477C649.163 212.388 677.388 184.163 653.477 174.26C677.388 184.163 677.388 144.247 653.477 154.15C677.388 144.247 649.167 116.022 639.26 139.933Z" fill="#F44719"/>
<path d="M377.214 599.094C390.519 566.969 336.891 566.969 350.196 599.094C336.891 566.969 298.969 604.891 331.094 618.196C298.969 604.891 298.969 658.519 331.094 645.214C298.969 658.519 336.891 696.441 350.196 664.316C336.891 696.441 390.519 696.441 377.214 664.316C390.519 696.441 428.441 658.519 396.316 645.214C428.441 658.519 428.441 604.891 396.316 618.196C428.441 604.891 390.525 566.969 377.214 599.094Z" fill="#F44719"/>
<path d="M113.393 576.89C132.985 529.584 54.0151 529.584 73.6074 576.89C54.0151 529.584 -1.82645 585.425 45.4794 605.018C-1.82645 585.425 -1.82645 664.395 45.4794 644.803C-1.82645 664.395 54.0151 720.237 73.6074 672.931C54.0151 720.237 132.985 720.237 113.393 672.931C132.985 720.237 188.826 664.395 141.521 644.803C188.826 664.395 188.826 585.425 141.521 605.018C188.826 585.425 132.993 529.584 113.393 576.89Z" fill="#FF9045"/>
<path d="M1194.88 248.991C1214.76 201.003 1134.65 201.003 1154.53 248.991C1134.65 201.003 1078 257.65 1125.99 277.525C1078 257.65 1078 337.76 1125.99 317.885C1078 337.76 1134.65 394.407 1154.53 346.419C1134.65 394.407 1214.76 394.407 1194.88 346.419C1214.76 394.407 1271.41 337.76 1223.42 317.885C1271.41 337.76 1271.41 257.65 1223.42 277.525C1271.41 257.65 1214.77 201.003 1194.88 248.991Z" fill="#F44719"/>
<path d="M520.22 412.94C543.38 357.02 450.03 357.02 473.19 412.94C450.03 357.02 384.02 423.03 439.94 446.19C384.02 423.03 384.02 516.38 439.94 493.22C384.02 516.38 450.03 582.39 473.19 526.47C450.03 582.39 543.38 582.39 520.22 526.47C543.38 582.39 609.39 516.38 553.47 493.22C609.39 516.38 609.39 423.03 553.47 446.19C609.39 423.03 543.39 357.02 520.22 412.94Z" fill="#34A3B2"/>
<path d="M114.791 98.3906C136.543 45.8698 48.8672 45.8698 70.6194 98.3906C48.8672 45.8698 -13.1302 107.867 39.3906 129.619C-13.1302 107.867 -13.1302 195.543 39.3906 173.791C-13.1302 195.543 48.8672 257.54 70.6194 205.019C48.8672 257.54 136.543 257.54 114.791 205.019C136.543 257.54 198.54 195.543 146.019 173.791C198.54 195.543 198.54 107.867 146.019 129.619C198.54 107.867 136.552 45.8698 114.791 98.3906Z" fill="#34A3B2"/>
<path d="M894.31 269.156C908.201 235.615 852.209 235.615 866.1 269.156C852.209 235.615 812.615 275.209 846.156 289.1C812.615 275.209 812.615 331.201 846.156 317.31C812.615 331.201 852.209 370.795 866.1 337.254C852.209 370.795 908.201 370.795 894.31 337.254C908.201 370.795 947.795 331.201 914.254 317.31C947.795 331.201 947.795 275.209 914.254 289.1C947.795 275.209 908.207 235.615 894.31 269.156Z" fill="#34A3B2"/>
<path d="M992.31 25.1564C1006.2 -8.38545 950.209 -8.38545 964.1 25.1564C950.209 -8.38545 910.615 31.2085 944.156 45.1003C910.615 31.2085 910.615 87.2015 944.156 73.3097C910.615 87.2015 950.209 126.795 964.1 93.2536C950.209 126.795 1006.2 126.795 992.31 93.2536C1006.2 126.795 1045.8 87.2015 1012.25 73.3097C1045.8 87.2015 1045.8 31.2085 1012.25 45.1003C1045.8 31.2085 1006.21 -8.38545 992.31 25.1564Z" fill="#FF9045"/>
</svg>
