<svg width="715" height="886" viewBox="0 0 715 886" fill="none" xmlns="http://www.w3.org/2000/svg">
<path fill-rule="evenodd" clip-rule="evenodd" d="M21.4355 55.1199V0H0V886H1.02051H21.4355H501.182H522.617H598.152H618.567H693.081H713.495H714.517V5.10376H693.081V55.1199H618.567V5.10376H598.152V55.1199H522.617V5.10376H501.182V55.1199H422.585V3.06226H401.149V55.1199H322.553V5.10376H301.117V55.1199H220.479V1.02075H201.085V55.1199H120.447V5.10376H99.0117V55.1199H21.4355ZM692.239 868.299H618.567V618.844C625.667 634.211 641.056 644.855 658.896 644.855C672.169 644.855 684.084 638.964 692.239 629.62V868.299ZM658.896 554.578C641.056 554.578 625.667 565.222 618.567 580.589V192C648.123 189.706 673.175 188.329 692.239 187.405V569.813C684.084 560.469 672.169 554.578 658.896 554.578ZM692.239 166.189C673.278 167.102 648.219 168.464 618.567 170.745V164.632H692.239V166.189ZM598.152 172.406V164.632H522.617V180.17C549.679 176.914 575.052 174.387 598.152 172.406ZM598.152 573.057V193.676C575.027 195.678 549.653 198.23 522.617 201.517V577.158C530.42 563.66 545.011 554.578 561.723 554.578C576.681 554.578 589.939 561.853 598.152 573.057ZM598.152 868.299V626.375C589.939 637.58 576.681 644.855 561.723 644.855C545.011 644.855 530.42 635.772 522.617 622.274V868.299H598.152ZM501.182 164.632H422.585V194.724C449.742 190.052 476.083 186.142 501.182 182.861V164.632ZM501.182 204.235C476.064 207.553 449.722 211.508 422.585 216.232V578.807C430.022 564.405 444.901 554.578 462.043 554.578C478.943 554.578 493.644 564.129 501.182 578.2V204.235ZM501.182 621.233C493.644 635.303 478.943 644.855 462.043 644.855C444.901 644.855 430.022 635.028 422.585 620.626V868.299H501.182V621.233ZM322.553 164.632H401.149V198.542C400.431 198.675 399.711 198.808 398.991 198.941C374.005 203.578 348.418 208.877 322.553 214.94V164.632ZM322.553 236.718C349.082 230.407 375.397 224.902 401.149 220.097V578.861C393.618 564.43 378.513 554.578 361.107 554.578C344.781 554.578 330.479 563.245 322.553 576.23V236.718ZM361.107 644.855C378.513 644.855 393.618 635.003 401.149 620.572V868.299H322.553V623.203C330.479 636.187 344.781 644.855 361.107 644.855ZM301.117 164.632H220.479V242.841C247.324 234.353 274.321 226.819 301.117 220.127V164.632ZM301.117 241.984C274.242 248.8 247.244 256.466 220.479 265.092V579.405C227.912 564.678 243.177 554.578 260.801 554.578C278.42 554.578 293.682 564.673 301.117 579.396V241.984ZM301.117 620.037C293.682 634.759 278.42 644.855 260.801 644.855C243.177 644.855 227.912 634.755 220.479 620.027V868.299H301.117V620.037ZM120.447 164.632H201.085V249.151C173.836 258.273 146.832 268.413 120.447 279.689V164.632ZM120.447 302.792C146.73 291.252 173.738 280.87 201.085 271.528V577.566C193.342 563.843 178.626 554.578 161.746 554.578C143.31 554.578 127.456 565.63 120.447 581.47V302.792ZM161.746 644.855C178.626 644.855 193.342 635.589 201.085 621.867V868.299H120.447V617.963C127.456 633.803 143.31 644.855 161.746 644.855ZM22.2764 164.632H99.0117V289.169C72.5579 301.272 46.8487 314.585 22.2764 329.23V164.632ZM22.2764 354.057C46.6936 338.872 72.4126 325.077 99.0117 312.543V576.683C91.1431 563.447 76.6995 554.578 60.1844 554.578C44.2929 554.578 30.3195 562.79 22.2764 575.202V354.057ZM60.1844 644.855C76.6995 644.855 91.1431 635.986 99.0117 622.75V868.299H22.2764V624.231C30.3195 636.643 44.2929 644.855 60.1844 644.855ZM37.6155 72.8209H84.0078V143.316H37.6155V72.8209ZM136.669 143.316V72.8209H184.315V143.316H136.669ZM235.723 143.316H283.369V72.8209H235.723V143.316ZM383.678 143.316H336.031V72.8209H383.678V143.316ZM435.085 143.316H482.731V72.8209H435.085V143.316ZM581.785 143.316H535.393V72.8209H581.785V143.316ZM633.193 143.316H677.078V72.8209H633.193V143.316ZM185.548 599.716C185.548 612.862 174.892 623.519 161.746 623.519C148.6 623.519 137.943 612.862 137.943 599.716C137.943 586.571 148.6 575.914 161.746 575.914C174.892 575.914 185.548 586.571 185.548 599.716ZM361.107 623.519C374.253 623.519 384.91 612.862 384.91 599.716C384.91 586.571 374.253 575.914 361.107 575.914C347.962 575.914 337.305 586.571 337.305 599.716C337.305 612.862 347.962 623.519 361.107 623.519ZM585.526 599.716C585.526 612.862 574.869 623.519 561.723 623.519C548.578 623.519 537.921 612.862 537.921 599.716C537.921 586.571 548.578 575.914 561.723 575.914C574.869 575.914 585.526 586.571 585.526 599.716Z" fill="black"/>
</svg>
