<svg width="157" height="382" viewBox="0 0 157 382" fill="none" xmlns="http://www.w3.org/2000/svg">
<path fill-rule="evenodd" clip-rule="evenodd" d="M10.5875 0.962891V26.9492H16.3634H40.5898V26.8555H50.0498V1.92578H60.6373V26.8555H66.9628V26.9492H90.1973V26.8555H98.1748V1.92578H108.762V26.8555H115.942V26.9492H137.92V26.8555H146.299V1.92578H156.886V381.149H146.299V381.148H108.762V381.149H98.1748V381.148H60.6373V381.149H50.0498V381.148H0V380.186V26.9492V0.962891H10.5875ZM146.299 81.8121H108.762V84.579C123.915 83.3845 136.659 82.6876 146.299 82.2259V81.8121ZM146.299 92.8504C136.689 93.3118 123.91 94.0046 108.762 95.1785V289.489C112.379 281.959 119.999 276.77 128.815 276.77C135.902 276.77 142.216 280.123 146.299 285.35V92.8504ZM146.299 313.399V373.602H108.762V309.26C112.379 316.791 119.999 321.98 128.815 321.98C135.902 321.98 142.216 318.627 146.299 313.399ZM60.6373 81.8121H98.1748V85.464C86.7083 86.4773 74.1135 87.7695 60.6373 89.4336V81.8121ZM60.6373 99.9468C74.0647 98.3156 86.6731 97.0458 98.1748 96.0479V285.73C94.047 280.286 87.5093 276.77 80.1503 276.77C71.8315 276.77 64.5622 281.263 60.6373 287.955V99.9468ZM80.1503 321.98C87.5093 321.98 94.047 318.464 98.1748 313.02V373.602H60.6373V310.795C64.5622 317.487 71.8315 321.98 80.1503 321.98ZM50.0498 90.7955V81.8121H10.5875V96.8676C24.2864 94.476 37.5008 92.4747 50.0498 90.7955ZM50.0498 101.288V289.017C46.3454 281.743 38.8608 276.77 30.2309 276.77C21.7351 276.77 14.3493 281.589 10.5875 288.68V107.304C24.2149 104.934 37.4416 102.951 50.0498 101.288ZM50.0498 309.733V373.602H10.5875V310.07C14.3493 317.161 21.7351 321.98 30.2309 321.98C38.8608 321.98 46.3454 317.007 50.0498 309.733ZM90.1973 34.495H66.9628V71.2246H90.1973V34.495ZM115.942 71.2246V34.495H137.92V71.2246H115.942ZM16.3634 34.495H40.5898V71.2246H16.3634V34.495ZM92.0706 299.375C92.0706 305.958 86.7337 311.295 80.1503 311.295C73.5669 311.295 68.2301 305.958 68.2301 299.375C68.2301 292.792 73.5669 287.455 80.1503 287.455C86.7337 287.455 92.0706 292.792 92.0706 299.375Z" fill="black"/>
</svg>
