<svg width="133" height="184" viewBox="0 0 133 184" fill="none" xmlns="http://www.w3.org/2000/svg">
<rect x="35.9346" y="80.1968" width="53.1148" height="84.0984" fill="#FAF6F1" stroke="#FAF6F1" stroke-width="3"/>
<path fill-rule="evenodd" clip-rule="evenodd" d="M11.5247 46.0498C11.5239 46.1491 11.5235 46.2484 11.5235 46.3478C11.5235 46.4471 11.5239 46.5463 11.5247 46.6455H11.5235L11.5235 59.6889L11.5235 73.3043H2V127.287H2.00142C2.00047 127.409 2 127.53 2 127.652C2 157.668 30.8776 182 66.5 182C102.122 182 131 157.668 131 127.652C131 127.597 131 127.541 131 127.486C130.999 127.42 130.999 127.354 130.999 127.287H131V73.3043H121.477V59.6889L121.477 46.6455H121.475C121.476 46.5463 121.477 46.4471 121.477 46.3478C121.477 46.2485 121.476 46.1493 121.475 46.0502C121.277 21.6945 96.7396 2 66.5 2C36.2606 2 11.7234 21.6943 11.5247 46.0498ZM108.49 73.3043V62V59.6889H108.382L108.489 46.5387C108.49 46.4752 108.49 46.4115 108.49 46.3478C108.49 31.5828 92.4926 15.0435 66.5 15.0435C40.5074 15.0435 24.5101 31.5828 24.5101 46.3478C24.5101 46.4111 24.5103 46.4748 24.5108 46.539L24.6177 59.6889H24.5101L24.5101 62L24.5101 73.3043H66.5H108.49ZM81.651 113.739C81.651 118.96 78.8751 123.529 74.7248 126.039V155.91H60.0067V126.039C55.8565 123.529 53.0805 118.96 53.0805 113.739C53.0805 105.815 59.4763 99.3913 67.3658 99.3913C75.2553 99.3913 81.651 105.815 81.651 113.739Z" fill="black" stroke="#FAF6F1" stroke-width="3"/>
<path fill-rule="evenodd" clip-rule="evenodd" d="M12.3976 47.515H12.3893L12.3893 74.1739H2.86577V126.418H2.874L2.86717 127.294C2.86624 127.413 2.86577 127.533 2.86577 127.652C2.86577 157.051 31.2071 181.13 66.5 181.13C101.793 181.13 130.134 157.051 130.134 127.652C130.134 127.598 130.134 127.543 130.134 127.489C130.134 127.424 130.133 127.359 130.133 127.294L130.126 126.418H130.134V74.1739H120.611L120.611 47.515H120.602L120.61 46.6384C120.61 46.5416 120.611 46.4448 120.611 46.3478C120.611 46.2509 120.61 46.154 120.61 46.0573C120.416 22.3451 96.4484 2.86956 66.5 2.86957C36.5517 2.86957 12.5839 22.3449 12.3904 46.057C12.3897 46.1538 12.3893 46.2508 12.3893 46.3478C12.3893 46.4447 12.3897 46.5416 12.3904 46.6384L12.3976 47.515ZM121.475 46.6455H121.477L121.477 73.3043H131V127.287H130.999C130.999 127.354 130.999 127.42 131 127.486C131 127.541 131 127.597 131 127.652C131 127.774 131 127.896 130.999 128.018C130.765 157.865 101.978 182 66.5 182C31.022 182 2.23424 157.865 2.00142 128.017C2.00047 127.895 2 127.774 2 127.652C2 127.53 2.00047 127.409 2.00142 127.287H2V73.3043H11.5235L11.5235 46.6455H11.5247C11.5239 46.5463 11.5235 46.4471 11.5235 46.3478C11.5235 46.2484 11.5239 46.1491 11.5247 46.0498C11.7234 21.6943 36.2606 2 66.5 2C96.7396 2 121.277 21.6945 121.475 46.0502C121.476 46.1493 121.477 46.2485 121.477 46.3478C121.477 46.4471 121.476 46.5463 121.475 46.6455ZM109.356 74.1739H23.6443L23.6443 58.8194H23.7449L23.6451 46.5461C23.6446 46.4797 23.6443 46.4135 23.6443 46.3478C23.6443 30.9505 40.1963 14.1739 66.5 14.1739C92.8037 14.1739 109.356 30.9505 109.356 46.3478C109.356 46.4139 109.355 46.4799 109.355 46.5458L109.255 58.8194H109.356V74.1739ZM24.6177 59.6889H24.5101L24.5101 73.3043H108.49V59.6889H108.382L108.489 46.5387C108.49 46.4752 108.49 46.4115 108.49 46.3478C108.49 31.5828 92.4926 15.0435 66.5 15.0435C40.5074 15.0435 24.5101 31.5828 24.5101 46.3478C24.5101 46.4111 24.5103 46.4748 24.5108 46.539L24.6177 59.6889ZM74.7248 155.91H60.0067V126.039C55.8565 123.529 53.0805 118.96 53.0805 113.739C53.0805 105.815 59.4763 99.3913 67.3658 99.3913C75.2553 99.3913 81.651 105.815 81.651 113.739C81.651 118.96 78.8751 123.529 74.7248 126.039V155.91ZM75.5906 126.521C79.757 123.811 82.5168 119.099 82.5168 113.739C82.5168 105.335 75.7334 98.5217 67.3658 98.5217C58.9981 98.5217 52.2148 105.335 52.2148 113.739C52.2148 119.099 54.9745 123.811 59.1409 126.521V156.78H75.5906V126.521Z" fill="#FAF6F1" stroke="#FAF6F1" stroke-width="3"/>
</svg>
