<svg width="157" height="381" viewBox="0 0 157 381" fill="none" xmlns="http://www.w3.org/2000/svg">
<path fill-rule="evenodd" clip-rule="evenodd" d="M146.412 0V25.9863H140.636H116.41V25.8926H106.95V0.962891H96.3623V25.8926H90.0367V25.9863H66.8023V25.8926H58.8248V0.962891H48.2373V25.8926H41.0572V25.9863H19.0796V25.8926H10.7007V0.962891H0.113276V380.186H10.7007V380.185H48.2373V380.186H58.8248V380.185H96.3623V380.186H106.95V380.185H157V379.223V25.9863V0H146.412ZM10.7007 372.639H48.2373V308.297C44.6206 315.828 37.0002 321.017 28.1847 321.017C21.098 321.017 14.7837 317.664 10.7007 312.437V372.639ZM10.7007 284.388C14.7837 279.16 21.098 275.807 28.1847 275.807C37.0002 275.807 44.6206 280.996 48.2373 288.527V94.2176C33.0893 93.0436 20.3104 92.3509 10.7007 91.8895V284.388ZM10.7007 81.2649C20.3404 81.7267 33.0844 82.4235 48.2373 83.618V80.8492H10.7007V81.2649ZM58.8248 80.8492V84.503C70.2913 85.5164 82.886 86.8086 96.3623 88.4727V80.8492H58.8248ZM58.8248 284.767V95.087C70.3264 96.0849 82.9349 97.3546 96.3623 98.9859V286.992C92.4373 280.3 85.168 275.807 76.8492 275.807C69.4902 275.807 62.9525 279.323 58.8248 284.767ZM58.8248 372.639V312.057C62.9525 317.501 69.4902 321.017 76.8492 321.017C85.168 321.017 92.4373 316.524 96.3623 309.832V372.639H58.8248ZM106.95 372.639H146.412V309.107C142.65 316.198 135.264 321.017 126.769 321.017C118.139 321.017 110.654 316.044 106.95 308.77V372.639ZM106.95 288.054C110.654 280.78 118.139 275.807 126.769 275.807C135.264 275.807 142.65 280.626 146.412 287.717V106.343C132.785 103.973 119.558 101.99 106.95 100.327V288.054ZM106.95 89.8345C119.499 91.5138 132.713 93.5151 146.412 95.9066V80.8492H106.95V89.8345ZM41.0572 33.5321H19.0796V70.2617H41.0572V33.5321ZM66.8023 70.2617H90.0367V33.5321H66.8023V70.2617ZM116.41 33.5321V70.2617H140.636V33.5321H116.41ZM64.9289 298.412C64.9289 304.995 70.2658 310.332 76.8492 310.332C83.4326 310.332 88.7695 304.995 88.7695 298.412C88.7695 291.829 83.4326 286.492 76.8492 286.492C70.2658 286.492 64.9289 291.829 64.9289 298.412Z" fill="black"/>
</svg>
