<svg width="714" height="883" viewBox="0 0 714 883" fill="none" xmlns="http://www.w3.org/2000/svg">
<path fill-rule="evenodd" clip-rule="evenodd" d="M692.588 53.0208V0H714V883L712.981 883L692.588 883L213.361 883H191.949L116.496 883H96.1036L21.671 883H0.25878V2.03931H21.671V53.0208H96.1036V3.05884H116.496V53.0208H191.949V2.03931H213.361V53.0208H291.873V2.03931H313.285V53.0208H391.797V2.03931H413.209V53.0208H493.76V0H513.133V53.0208H593.684V2.03931H615.096V53.0208H692.588ZM191.949 865.318H116.496V623.656C124.701 634.849 137.945 642.116 152.886 642.116C169.58 642.116 184.154 633.044 191.949 619.562V865.318ZM152.886 551.937C137.945 551.937 124.701 559.205 116.496 570.398V191.427C139.596 193.427 164.943 195.976 191.949 199.259V574.492C184.154 561.009 169.58 551.937 152.886 551.937ZM191.949 177.936C164.917 174.683 139.571 172.159 116.496 170.179V162.414H191.949V177.936ZM96.1036 168.521V162.414H22.5114V163.969C41.4523 164.882 66.4836 166.242 96.1036 168.521ZM96.1036 577.92V189.753C66.5802 187.461 41.5545 186.086 22.5114 185.163V567.155C30.6576 557.822 42.5602 551.937 55.8181 551.937C73.6393 551.937 89.0117 562.569 96.1036 577.92ZM55.8181 642.116C73.6393 642.116 89.0117 631.484 96.1036 616.134V865.318H22.5114V626.898C30.6576 636.232 42.5602 642.116 55.8181 642.116ZM213.361 180.623V162.414H291.873V192.473C264.746 187.807 238.433 183.901 213.361 180.623ZM213.361 865.318H291.873V617.916C284.444 632.301 269.582 642.116 252.459 642.116C235.576 642.116 220.891 632.574 213.361 618.518V865.318ZM213.361 575.535V201.974C238.451 205.289 264.766 209.239 291.873 213.958V576.138C284.444 561.753 269.582 551.937 252.459 551.937C235.576 551.937 220.891 561.479 213.361 575.535ZM391.797 865.318H313.285V617.86C320.809 632.276 335.897 642.116 353.284 642.116C369.592 642.116 383.879 633.458 391.797 620.487V865.318ZM313.285 217.819V576.193C320.809 561.778 335.897 551.937 353.284 551.937C369.592 551.937 383.879 560.596 391.797 573.567V234.422C365.296 228.118 339.01 222.619 313.285 217.819ZM313.285 162.414V196.288C313.724 196.368 314.163 196.45 314.603 196.531L315.441 196.686C340.4 201.318 365.96 206.611 391.797 212.668V162.414H313.285ZM413.209 217.849V162.414H493.76V240.539C466.944 232.06 439.976 224.534 413.209 217.849ZM413.209 865.318H493.76V617.317C486.335 632.028 471.087 642.116 453.483 642.116C435.882 642.116 420.636 632.031 413.209 617.324V865.318ZM413.209 576.73V239.682C440.055 246.491 467.024 254.149 493.76 262.766V576.736C486.335 562.026 471.087 551.937 453.483 551.937C435.882 551.937 420.636 562.023 413.209 576.73ZM593.684 865.318H513.133V619.152C520.868 632.86 535.568 642.116 552.43 642.116C570.846 642.116 586.682 631.077 593.684 615.254V865.318ZM513.133 269.194V574.902C520.868 561.193 535.568 551.937 552.43 551.937C570.846 551.937 586.682 562.977 593.684 578.799V300.425C567.429 288.897 540.45 278.526 513.133 269.194ZM513.133 162.414V246.842C540.353 255.954 567.327 266.083 593.684 277.347V162.414H513.133ZM691.748 865.318H615.096V620.035C622.956 633.256 637.384 642.116 653.881 642.116C669.755 642.116 683.713 633.913 691.748 621.515V865.318ZM615.096 310.165V574.018C622.956 560.797 637.384 551.937 653.881 551.937C669.755 551.937 683.713 560.14 691.748 572.538V351.634C667.357 336.466 641.666 322.686 615.096 310.165ZM615.096 162.414V286.816C641.521 298.907 667.202 312.205 691.748 326.834V162.414H615.096ZM676.425 70.7026H630.084V141.121H676.425V70.7026ZM37.6564 141.121V70.7026H81.4939V141.121H37.6564ZM132.846 141.121H179.189V70.7026H132.846V141.121ZM231.793 141.121V70.7026H279.386V141.121H231.793ZM330.738 141.121H378.333V70.7026H330.738V141.121ZM430.938 141.121V70.7026H478.532V141.121H430.938ZM529.884 141.121H577.48V70.7026H529.884V141.121ZM528.654 597.027C528.654 610.158 539.299 620.803 552.43 620.803C565.562 620.803 576.207 610.158 576.207 597.027C576.207 583.895 565.562 573.25 552.43 573.25C539.299 573.25 528.654 583.895 528.654 597.027ZM353.284 620.803C340.152 620.803 329.507 610.158 329.507 597.027C329.507 583.895 340.152 573.25 353.284 573.25C366.415 573.25 377.06 583.895 377.06 597.027C377.06 610.158 366.415 620.803 353.284 620.803ZM129.11 597.027C129.11 610.158 139.755 620.803 152.886 620.803C166.018 620.803 176.663 610.158 176.663 597.027C176.663 583.895 166.018 573.25 152.886 573.25C139.755 573.25 129.11 583.895 129.11 597.027Z" fill="black"/>
</svg>
