<svg width="80" height="78" viewBox="0 0 80 78" fill="none" xmlns="http://www.w3.org/2000/svg">
<path fill-rule="evenodd" clip-rule="evenodd" d="M7.52136 0H0V4.10252V7.52136V17.094H2.73521V26.6667V36.2393V77.2649H25.299V52.6497H25.3033C25.3007 52.5359 25.2994 52.4217 25.2994 52.3073C25.2994 44.1883 31.8812 37.6065 40.0002 37.6065C48.1193 37.6065 54.7011 44.1883 54.7011 52.3073C54.7011 52.4217 54.6998 52.5359 54.6972 52.6497H54.7007V77.2649H77.265V26.6667H77.2646V17.094H79.9994V7.52136H79.9997V0H72.4783V4.10252H69.06V0H61.5387V4.10252H57.4354V0H49.914V4.10252V7.52136V17.094H52.6492V26.6667H27.3506V17.094H30.0854V7.52136H30.0856V0H22.5643V4.10252H19.1448V0H11.6235V4.10252H7.52136V0Z" fill="black"/>
</svg>
