<svg width="1419" height="783" viewBox="0 0 1419 783" fill="none" xmlns="http://www.w3.org/2000/svg">
<path fill-rule="evenodd" clip-rule="evenodd" d="M1028.04 159H832.69V546H1028.04V159ZM930.365 370.37C969.674 370.37 1001.54 338.504 1001.54 299.194C1001.54 259.885 969.674 228.018 930.365 228.018C891.055 228.018 859.189 259.885 859.189 299.194C859.189 338.504 891.055 370.37 930.365 370.37Z" fill="#FF9045"/>
<path fill-rule="evenodd" clip-rule="evenodd" d="M1026.98 783C1026.98 782.794 1026.98 782.588 1026.98 782.381C1026.98 658.459 927.597 558 805 558C682.404 558 583.02 658.459 583.02 782.381C583.02 782.588 583.02 782.794 583.02 783H694.316C694.315 782.794 694.314 782.588 694.314 782.382C694.314 720.592 743.87 670.5 804.999 670.5C866.129 670.5 915.684 720.592 915.684 782.382C915.684 782.588 915.683 782.794 915.682 783H1026.98Z" fill="#F44719"/>
<rect x="1036" y="553" width="90" height="230" fill="#FF9045"/>
<rect x="1036" y="405" width="268" height="141" fill="#F44719"/>
<rect x="1133" y="553" width="171" height="127" fill="#34A3B2"/>
<rect x="583" y="459" width="241" height="87" fill="#F44719"/>
<path d="M930.5 0L1028 152H833L930.5 0Z" fill="#34A3B2"/>
<rect x="330" y="513" width="75" height="270" fill="#FF9045"/>
<rect x="416" y="459" width="157" height="324" fill="#34A3B2"/>
<rect x="70" y="659" width="249" height="124" fill="#F44719"/>
<path fill-rule="evenodd" clip-rule="evenodd" d="M1027 669V552.999H911L1027 669Z" fill="#34A3B2"/>
<path fill-rule="evenodd" clip-rule="evenodd" d="M583 669.001V553H699L583 669.001Z" fill="#FF9045"/>
<rect y="563" width="199" height="87" fill="#FF9045"/>
<rect x="207" y="562" width="112" height="87" fill="#34A3B2"/>
<rect y="660" width="62" height="123" fill="#34A3B2"/>
<path fill-rule="evenodd" clip-rule="evenodd" d="M0.000591651 553.123C0.000197301 552.977 0 552.83 0 552.684C0 464.507 71.4816 393.025 159.659 393.025C247.836 393.025 319.317 464.507 319.317 552.684C319.317 552.83 319.317 552.977 319.317 553.123H239.267C239.267 552.977 239.268 552.831 239.268 552.685C239.268 508.718 203.625 473.076 159.658 473.076C115.691 473.076 80.0489 508.718 80.0489 552.685C80.0489 552.831 80.0493 552.977 80.0501 553.123H0.000591651Z" fill="#34A3B2"/>
<path fill-rule="evenodd" clip-rule="evenodd" d="M1036 398.369C1036 398.246 1036 398.123 1036 398C1036 323.994 1095.99 264 1170 264C1244.01 264 1304 323.994 1304 398C1304 398.123 1304 398.246 1304 398.369H1236.81C1236.82 398.246 1236.82 398.124 1236.82 398.001C1236.82 361.1 1206.9 331.186 1170 331.186C1133.1 331.186 1103.18 361.1 1103.18 398.001C1103.18 398.124 1103.18 398.246 1103.19 398.369H1036Z" fill="#FF9045"/>
<rect x="1312" y="470" width="107" height="313" fill="#FF9045"/>
<rect x="1235" y="688" width="69" height="95" fill="#F44719"/>
<path fill-rule="evenodd" clip-rule="evenodd" d="M824 270V452.042H583L824 270Z" fill="#34A3B2"/>
<rect x="1133" y="688" width="95" height="95" fill="#34A3B2"/>
<path fill-rule="evenodd" clip-rule="evenodd" d="M1147.52 698H1140V702.103V705.521V715.094H1142.74V724.667V734.239V775.265H1165.3V750.65H1165.3C1165.3 750.536 1165.3 750.422 1165.3 750.307C1165.3 742.188 1171.88 735.606 1180 735.606C1188.12 735.606 1194.7 742.188 1194.7 750.307C1194.7 750.422 1194.7 750.536 1194.7 750.65H1194.7V775.265H1217.27V724.667H1217.26V715.094H1220V705.521H1220V698H1212.48V702.103H1209.06V698H1201.54V702.103H1197.44V698H1189.91V702.103V705.521V715.094H1192.65V724.667H1167.35V715.094H1170.09V705.521H1170.09V698H1162.56V702.103H1159.14V698H1151.62V702.103H1147.52V698Z" fill="black"/>
</svg>
