<svg width="1485" height="662" viewBox="0 0 1485 662" fill="none" xmlns="http://www.w3.org/2000/svg">
<rect x="1134" y="567" width="95" height="95" fill="#34A3B2"/>
<path fill-rule="evenodd" clip-rule="evenodd" d="M1148.52 577H1141V581.103V584.521V594.094H1143.74V603.667V613.239V654.265H1166.3V629.65H1166.3C1166.3 629.536 1166.3 629.422 1166.3 629.307C1166.3 621.188 1172.88 614.606 1181 614.606C1189.12 614.606 1195.7 621.188 1195.7 629.307C1195.7 629.422 1195.7 629.536 1195.7 629.65H1195.7V654.265H1218.27V603.667H1218.26V594.094H1221V584.521H1221V577H1213.48V581.103H1210.06V577H1202.54V581.103H1198.44V577H1190.91V581.103V584.521V594.094H1193.65V603.667H1168.35V594.094H1171.09V584.521H1171.09V577H1163.56V581.103H1160.14V577H1152.62V581.103H1148.52V577Z" fill="black"/>
<rect x="571" y="82" width="98" height="323" fill="#34A3B2"/>
<rect x="679" y="208" width="106" height="196" fill="#FF9045"/>
<rect x="180" y="276" width="132" height="128" fill="#34A3B2"/>
<rect x="97" y="74" width="56" height="55" fill="#F44719"/>
<rect x="748" y="67" width="56" height="55" fill="#F44719"/>
<rect x="161" y="74" width="56" height="55" fill="#34A3B2"/>
<rect x="812" y="67" width="56" height="55" fill="#34A3B2"/>
<rect x="225" y="74" width="56" height="55" fill="#FF9045"/>
<rect x="876" y="67" width="56" height="55" fill="#FF9045"/>
<rect x="288" y="74" width="56" height="55" fill="#34A3B2"/>
<rect x="939" y="67" width="56" height="55" fill="#34A3B2"/>
<rect x="134" y="137" width="131" height="129" fill="#FF9045"/>
<rect x="275" y="137" width="37" height="129" fill="#34A3B2"/>
<rect x="181" y="567" width="37" height="95" fill="#F44719"/>
<rect x="796" y="259" width="37" height="96" fill="#34A3B2"/>
<rect x="231" y="567" width="37" height="95" fill="#F44719"/>
<rect x="846" y="259" width="37" height="96" fill="#34A3B2"/>
<rect x="281" y="567" width="37" height="95" fill="#F44719"/>
<rect x="896" y="259" width="37" height="96" fill="#34A3B2"/>
<rect x="134" y="276" width="37" height="128" fill="#F44719"/>
<rect x="333" y="567" width="37" height="95" fill="#F44719"/>
<rect x="948" y="259" width="37" height="96" fill="#34A3B2"/>
<rect x="385" y="567" width="37" height="95" fill="#F44719"/>
<rect x="1000" y="259" width="37" height="96" fill="#34A3B2"/>
<rect x="437" y="567" width="37" height="95" fill="#F44719"/>
<rect x="1052" y="259" width="37" height="96" fill="#34A3B2"/>
<rect x="321" y="316" width="238" height="88" fill="#F44719"/>
<rect x="1136" y="310" width="124" height="89" fill="#F44719"/>
<rect x="958" y="208" width="167" height="44" fill="#F44719"/>
<rect x="795" y="129" width="154" height="123" fill="#F44719"/>
<rect x="487" y="414" width="72" height="143" fill="#34A3B2"/>
<rect x="1270" y="256" width="150" height="143" fill="#34A3B2"/>
<rect x="1098" y="259" width="29" height="403" fill="#34A3B2"/>
<rect x="487" y="567" width="192" height="95" fill="#34A3B2"/>
<rect x="1236" y="567" width="184" height="95" fill="#FF9045"/>
<rect x="690" y="567" width="95" height="95" fill="#FF9045"/>
<rect x="571" y="414" width="214" height="143" fill="#F44719"/>
<rect x="795" y="366" width="214" height="143" fill="#F44719"/>
<rect x="796" y="520" width="214" height="142" fill="#34A3B2"/>
<rect y="414" width="170" height="248" fill="#F44719"/>
<rect x="1019" y="366" width="70" height="296" fill="#FF9045"/>
<rect x="538" y="29" width="164" height="45" fill="#34A3B2"/>
<rect x="538" width="42" height="36" fill="#34A3B2"/>
<rect x="599" width="41" height="36" fill="#34A3B2"/>
<rect x="660" width="42" height="36" fill="#34A3B2"/>
<path d="M180.953 413.98L311.507 414.335L180.41 544.534L180.953 413.98Z" fill="#FF9045"/>
<path d="M1136.69 411.572L1267.24 411.934L1136.15 544.561L1136.69 411.572Z" fill="#FF9045"/>
<path d="M1420.22 410.344L1419.95 542.349L1290.64 411.849L1420.22 410.344Z" fill="#F44719"/>
<path d="M475.348 415.079L476.048 545.632L344.794 415.591L475.348 415.079Z" fill="#FF9045"/>
<path d="M326.5 414L468.961 556.5H184.039L326.5 414Z" fill="#34A3B2"/>
<path d="M1278.5 414L1420.1 559.5H1136.9L1278.5 414Z" fill="#34A3B2"/>
<path fill-rule="evenodd" clip-rule="evenodd" d="M0.0540956 338.369H0V403.754H125.741V338.369H125.687C124.308 285.33 96.7118 243 62.8706 243C29.0294 243 1.433 285.33 0.0540956 338.369Z" fill="#34A3B2"/>
</svg>
