<svg width="1486" height="783" viewBox="0 0 1486 783" fill="none" xmlns="http://www.w3.org/2000/svg">
<rect width="1486" height="783" fill="#C4C4C4"/>
<path d="M1134 688H1229V783H1134V688Z" fill="#34A3B2"/>
<path fill-rule="evenodd" clip-rule="evenodd" d="M1148.52 698H1141V702.103V705.521V715.094H1143.74V724.667V734.239V775.265H1166.3V750.65H1166.3C1166.3 750.536 1166.3 750.422 1166.3 750.307C1166.3 742.188 1172.88 735.606 1181 735.606C1189.12 735.606 1195.7 742.188 1195.7 750.307C1195.7 750.422 1195.7 750.536 1195.7 750.65H1195.7V775.265H1218.27V724.667H1218.26V715.094H1221V705.521H1221V698H1213.48V702.103H1210.06V698H1202.54V702.103H1198.44V698H1190.91V702.103V705.521V715.094H1193.65V724.667H1168.35V715.094H1171.09V705.521H1171.09V698H1163.56V702.103H1160.14V698H1152.62V702.103H1148.52V698Z" fill="black"/>
<path d="M571 203H669V526H571V203Z" fill="#34A3B2"/>
<path d="M679 329H785V525H679V329Z" fill="#FF9045"/>
<path d="M180 397H312V525H180V397Z" fill="#34A3B2"/>
<path d="M97 195H153V250H97V195Z" fill="#F44719"/>
<path d="M748 188H804V243H748V188Z" fill="#F44719"/>
<path d="M161 195H217V250H161V195Z" fill="#34A3B2"/>
<path d="M812 188H868V243H812V188Z" fill="#34A3B2"/>
<path d="M225 195H281V250H225V195Z" fill="#FF9045"/>
<path d="M876 188H932V243H876V188Z" fill="#FF9045"/>
<path d="M288 195H344V250H288V195Z" fill="#34A3B2"/>
<path d="M939 188H995V243H939V188Z" fill="#34A3B2"/>
<path d="M134 258H265V387H134V258Z" fill="#FF9045"/>
<path d="M275 258H312V387H275V258Z" fill="#34A3B2"/>
<path d="M181 688H218V783H181V688Z" fill="#F44719"/>
<path d="M796 380H833V476H796V380Z" fill="#34A3B2"/>
<path d="M231 688H268V783H231V688Z" fill="#F44719"/>
<path d="M846 380H883V476H846V380Z" fill="#34A3B2"/>
<path d="M281 688H318V783H281V688Z" fill="#F44719"/>
<path d="M896 380H933V476H896V380Z" fill="#34A3B2"/>
<path d="M134 397H171V525H134V397Z" fill="#F44719"/>
<path d="M333 688H370V783H333V688Z" fill="#F44719"/>
<path d="M948 380H985V476H948V380Z" fill="#34A3B2"/>
<path d="M385 688H422V783H385V688Z" fill="#F44719"/>
<path d="M1000 380H1037V476H1000V380Z" fill="#34A3B2"/>
<path d="M437 688H474V783H437V688Z" fill="#F44719"/>
<path d="M1052 380H1089V476H1052V380Z" fill="#34A3B2"/>
<path d="M321 437H559V525H321V437Z" fill="#F44719"/>
<path d="M1136 431H1260V520H1136V431Z" fill="#F44719"/>
<path d="M958 329H1125V373H958V329Z" fill="#F44719"/>
<path d="M795 250H949V373H795V250Z" fill="#F44719"/>
<path d="M487 535H559V678H487V535Z" fill="#34A3B2"/>
<path d="M1270 377H1420V520H1270V377Z" fill="#34A3B2"/>
<path d="M1098 380H1127V783H1098V380Z" fill="#34A3B2"/>
<path d="M487 688H679V783H487V688Z" fill="#34A3B2"/>
<path d="M1236 688H1420V783H1236V688Z" fill="#FF9045"/>
<path d="M690 688H785V783H690V688Z" fill="#FF9045"/>
<path d="M571 535H785V678H571V535Z" fill="#F44719"/>
<path d="M795 487H1009V630H795V487Z" fill="#F44719"/>
<path d="M796 641H1010V783H796V641Z" fill="#34A3B2"/>
<path d="M0 535H170V783H0V535Z" fill="#F44719"/>
<path d="M1019 487H1089V783H1019V487Z" fill="#FF9045"/>
<path d="M538 150H702V195H538V150Z" fill="#34A3B2"/>
<path d="M538 121H580V157H538V121Z" fill="#34A3B2"/>
<path d="M599 121H640V157H599V121Z" fill="#34A3B2"/>
<path d="M660 121H702V157H660V121Z" fill="#34A3B2"/>
<path d="M180.953 534.98L311.507 535.335L180.41 665.534L180.953 534.98Z" fill="#FF9045"/>
<path d="M1136.69 532.572L1267.24 532.934L1136.15 665.561L1136.69 532.572Z" fill="#FF9045"/>
<path d="M1420.22 531.344L1419.95 663.349L1290.64 532.849L1420.22 531.344Z" fill="#F44719"/>
<path d="M475.348 536.079L476.048 666.632L344.794 536.591L475.348 536.079Z" fill="#FF9045"/>
<path d="M326.5 535L468.961 677.5H184.039L326.5 535Z" fill="#34A3B2"/>
<path d="M1278.5 535L1420.1 680.5H1136.9L1278.5 535Z" fill="#34A3B2"/>
<path fill-rule="evenodd" clip-rule="evenodd" d="M0.0540956 459.369H0V524.754H125.741V459.369H125.687C124.308 406.33 96.7118 364 62.8706 364C29.0294 364 1.433 406.33 0.0540956 459.369Z" fill="#34A3B2"/>
</svg>
