<svg width="1486" height="783" viewBox="0 0 1486 783" fill="none" xmlns="http://www.w3.org/2000/svg">
<rect width="1486" height="783" fill="#C4C4C4"/>
<rect x="1134" y="688" width="95" height="95" fill="#34A3B2"/>
<path fill-rule="evenodd" clip-rule="evenodd" d="M1148.52 698H1141V702.103V705.521V715.094H1143.74V724.667V734.239V775.265H1166.3V750.65H1166.3C1166.3 750.536 1166.3 750.422 1166.3 750.307C1166.3 742.188 1172.88 735.606 1181 735.606C1189.12 735.606 1195.7 742.188 1195.7 750.307C1195.7 750.422 1195.7 750.536 1195.7 750.65H1195.7V775.265H1218.27V724.667H1218.26V715.094H1221V705.521H1221V698H1213.48V702.103H1210.06V698H1202.54V702.103H1198.44V698H1190.91V702.103V705.521V715.094H1193.65V724.667H1168.35V715.094H1171.09V705.521H1171.09V698H1163.56V702.103H1160.14V698H1152.62V702.103H1148.52V698Z" fill="black"/>
<rect x="1236" y="688" width="184" height="95" fill="#FF9045"/>
<rect y="403" width="99" height="380" fill="#FF9045"/>
<rect x="1" y="350" width="449" height="43" fill="#F44719"/>
<circle cx="222.5" cy="517.5" r="114.5" fill="#34A3B2"/>
<path fill-rule="evenodd" clip-rule="evenodd" d="M450 642H108V783H182.925C191.836 739.673 231.337 707.019 278.717 707.019C326.097 707.019 365.598 739.673 374.509 783H450V642Z" fill="#F44719"/>
<path fill-rule="evenodd" clip-rule="evenodd" d="M1420 563.14H1135V681H1197.59C1205.32 644.838 1238.05 617.679 1277.26 617.679C1316.48 617.679 1349.21 644.838 1356.93 681H1420V563.14Z" fill="#34A3B2"/>
<path fill-rule="evenodd" clip-rule="evenodd" d="M450 403V632.002H296.998L450 403Z" fill="#34A3B2"/>
<path fill-rule="evenodd" clip-rule="evenodd" d="M675 466V678.001H745.345L675 466Z" fill="#F44719"/>
<path fill-rule="evenodd" clip-rule="evenodd" d="M755 678V466H684.655L755 678Z" fill="#34A3B2"/>
<path d="M433.706 404.24L362.274 511.581L304.774 405.296L433.706 404.24Z" fill="#FF9045"/>
<circle cx="529" cy="712" r="70" fill="#FF9045"/>
<rect x="459" y="466" width="140" height="166" fill="#F44719"/>
<rect x="979" y="616" width="148" height="167" fill="#FF9045"/>
<rect x="979" y="466" width="148" height="139" fill="#34A3B2"/>
<rect x="608" y="466" width="59" height="317" fill="#34A3B2"/>
<rect x="677" y="688" width="37" height="95" fill="#34A3B2"/>
<rect x="1135" y="465" width="36" height="91" fill="#F44719"/>
<rect x="727" y="688" width="37" height="95" fill="#34A3B2"/>
<rect x="1184" y="465" width="35" height="91" fill="#F44719"/>
<rect x="777" y="688" width="37" height="95" fill="#34A3B2"/>
<rect x="1233" y="465" width="35" height="91" fill="#F44719"/>
<rect x="829" y="688" width="37" height="95" fill="#34A3B2"/>
<rect x="1283" y="465" width="36" height="91" fill="#F44719"/>
<rect x="881" y="688" width="37" height="95" fill="#34A3B2"/>
<rect x="1333" y="465" width="36" height="91" fill="#F44719"/>
<rect x="933" y="688" width="37" height="95" fill="#34A3B2"/>
<rect x="1384" y="465" width="36" height="91" fill="#F44719"/>
<circle cx="866" cy="569" r="103" fill="#FF9045"/>
<path d="M223 132L445 340H1L223 132Z" fill="#34A3B2"/>
<path d="M867.5 247L1127 455H608L867.5 247Z" fill="#F44719"/>
<path fill-rule="evenodd" clip-rule="evenodd" d="M459.06 390.369H459V455.754H599V390.369H598.94C597.405 337.33 566.679 295 529 295C491.321 295 460.596 337.33 459.06 390.369Z" fill="#FF9045"/>
<path fill-rule="evenodd" clip-rule="evenodd" d="M1135.12 345.222H1135V455.754H1420V352.262V345.222H1419.88C1416.75 255.558 1354.2 184 1277.5 184C1200.8 184 1138.25 255.558 1135.12 345.222Z" fill="#34A3B2"/>
</svg>
