<svg id="castle-3" class="castle" style="display:none" width="1486" height="783" viewBox="0 0 1486 783" fill="none" xmlns="http://www.w3.org/2000/svg">
<rect width="1486" height="783" fill="#C4C4C4"/>
<path id="castle-btn-icon-3" fill-rule="evenodd" clip-rule="evenodd" d="M1029.04 159H833.69V546H1029.04V159ZM931.365 370.37C970.674 370.37 1002.54 338.504 1002.54 299.194C1002.54 259.885 970.674 228.018 931.365 228.018C892.055 228.018 860.189 259.885 860.189 299.194C860.189 338.504 892.055 370.37 931.365 370.37Z" fill="#FF9045"/>
<path fill-rule="evenodd" clip-rule="evenodd" d="M1027.98 783C1027.98 782.794 1027.98 782.588 1027.98 782.381C1027.98 658.459 928.597 558 806 558C683.404 558 584.02 658.459 584.02 782.381C584.02 782.588 584.02 782.794 584.02 783H695.316C695.315 782.794 695.314 782.588 695.314 782.382C695.314 720.592 744.87 670.5 805.999 670.5C867.129 670.5 916.684 720.592 916.684 782.382C916.684 782.588 916.683 782.794 916.682 783H1027.98Z" fill="#F44719"/>
<rect x="1037" y="553" width="90" height="230" fill="#FF9045"/>
<rect x="1037" y="405" width="268" height="141" fill="#F44719"/>
<rect x="1134" y="553" width="171" height="127" fill="#34A3B2"/>
<rect x="584" y="459" width="241" height="87" fill="#F44719"/>
<path d="M931.5 0L1029 152H834L931.5 0Z" fill="#34A3B2"/>
<rect x="328" y="513" width="82" height="270" fill="#FF9045"/>
<rect x="417" y="459" width="157" height="324" fill="#34A3B2"/>
<rect x="71" y="659" width="249" height="124" fill="#F44719"/>
<path fill-rule="evenodd" clip-rule="evenodd" d="M1028 669V552.999H912L1028 669Z" fill="#34A3B2"/>
<path fill-rule="evenodd" clip-rule="evenodd" d="M584 669.001V553H700L584 669.001Z" fill="#FF9045"/>
<rect y="563" width="200" height="87" fill="#FF9045"/>
<rect x="208" y="562" width="112" height="87" fill="#34A3B2"/>
<rect y="659" width="63" height="124" fill="#34A3B2"/>
<path fill-rule="evenodd" clip-rule="evenodd" d="M0.000593503 553.123C0.000197919 552.977 0 552.83 0 552.684C0 464.507 71.7055 393.025 160.159 393.025C248.612 393.025 320.317 464.507 320.317 552.684C320.317 552.83 320.317 552.977 320.317 553.123H240.016C240.017 552.977 240.017 552.831 240.017 552.685C240.017 508.718 204.263 473.076 160.158 473.076C116.054 473.076 80.2996 508.718 80.2996 552.685C80.2996 552.831 80.3 552.977 80.3008 553.123H0.000593503Z" fill="#34A3B2"/>
<path fill-rule="evenodd" clip-rule="evenodd" d="M1037 398.369C1037 398.246 1037 398.123 1037 398C1037 323.994 1096.99 264 1171 264C1245.01 264 1305 323.994 1305 398C1305 398.123 1305 398.246 1305 398.369H1237.81C1237.82 398.246 1237.82 398.124 1237.82 398.001C1237.82 361.1 1207.9 331.186 1171 331.186C1134.1 331.186 1104.18 361.1 1104.18 398.001C1104.18 398.124 1104.18 398.246 1104.19 398.369H1037Z" fill="#FF9045"/>
<rect x="1313" y="470" width="107" height="313" fill="#FF9045"/>
<rect x="1236" y="688" width="69" height="95" fill="#F44719"/>
<path fill-rule="evenodd" clip-rule="evenodd" d="M825 270V452.042H584L825 270Z" fill="#34A3B2"/>
<rect x="1134" y="688" width="95" height="95" fill="#34A3B2"/>
<path fill-rule="evenodd" clip-rule="evenodd" d="M1148.52 698H1141V702.103V705.521V715.094H1143.74V724.667V734.239V775.265H1166.3V750.65H1166.3C1166.3 750.536 1166.3 750.422 1166.3 750.307C1166.3 742.188 1172.88 735.606 1181 735.606C1189.12 735.606 1195.7 742.188 1195.7 750.307C1195.7 750.422 1195.7 750.536 1195.7 750.65H1195.7V775.265H1218.27V724.667H1218.26V715.094H1221V705.521H1221V698H1213.48V702.103H1210.06V698H1202.54V702.103H1198.44V698H1190.91V702.103V705.521V715.094H1193.65V724.667H1168.35V715.094H1171.09V705.521H1171.09V698H1163.56V702.103H1160.14V698H1152.62V702.103H1148.52V698Z" fill="black"/>
</svg>
