<svg width="217" height="78" viewBox="0 0 217 78" fill="none" xmlns="http://www.w3.org/2000/svg">
<path fill-rule="evenodd" clip-rule="evenodd" d="M81.9806 32.7916C82.4855 34.8153 82.1908 36.9483 81.0962 39.1908C80.9585 39.475 80.8139 39.7484 80.6625 40.0109C82.3106 40.0437 83.9497 40.3449 85.514 40.9095C88.0523 41.8223 90.278 43.4417 91.9298 45.5776C94.5393 48.8893 95.2572 52.1121 94.0835 55.246L96.6502 53.8891L91.4794 16.244L110.158 13.672C116.709 12.7614 122.057 13.6091 126.203 16.2153C129.73 18.4203 132.034 21.6836 133.116 26.0054L146.466 38.6453L147.19 37.8791C145.989 35.7837 145.283 33.4386 145.127 31.0236C144.775 27.6013 145.217 24.1437 146.417 20.9203C147.492 17.9995 149.342 15.428 151.768 13.4833C154.14 11.5908 157.024 10.4547 160.047 10.2222C162.845 9.9761 165.247 10.3795 167.253 11.4323C169.282 12.5022 170.899 14.2161 171.851 16.3055L172.486 9.3772L176.465 9.02443L173.616 40.3873L179.7 24.0214L188.945 27.4836L182.893 43.7686L189.567 46.2421L206.19 33.9032L216.016 37.5663L195.614 52.0957L201.44 78L190.869 74.058L186.439 53.9252L180.007 51.5255L173.972 67.7532L164.727 64.3033L172.944 42.1971L169.652 42.4846L170.152 37.2587C168.935 39.0722 167.338 40.598 165.472 41.7299C163.552 42.8729 161.394 43.5552 159.167 43.7234C158.604 43.7833 158.039 43.8065 157.477 43.7937L160.743 46.8863L153.21 54.8729L148.796 50.693L137.913 62.232L142.327 66.4078L134.793 74.3945L123.149 63.3682L123.726 62.757C124.875 61.5346 125.061 60.0948 124.283 58.4376C123.505 56.7804 121.978 54.8032 119.702 52.5061L115.901 48.653C115.6 48.7015 115.296 48.7469 114.989 48.7894L100.106 50.8405L101.069 57.8725L102.465 59.6475L101.389 60.2079L102.444 67.9131L98.6486 68.4381L97.7766 62.0897L76.7317 73.0529L72.0601 67.1296L74.5781 65.7841C72.0289 65.3659 69.6748 64.1576 67.8468 62.3291C66.0188 60.5006 64.8089 58.1439 64.3874 55.5906C64.0841 53.5126 64.3677 51.3911 65.2062 49.4663C66.0778 47.4841 67.4004 45.7373 69.0646 44.3638C67.3866 43.9804 65.5819 43.3185 63.6503 42.378L58.896 40.0568L68.3752 77.2083H65.3454L62.4466 65.5708H38.8387L31.3543 77.2083H28.0461L42.8126 54.4386L41.4345 55.0614L27.7595 44.429L24.1196 46.0698L30.4085 60.0413L17.4009 65.9236L0 27.2702L13.0077 21.392L19.4972 35.8024L23.4646 34.0099L25.1883 15.8871L38.7487 9.75868L35.7352 33.7145L49.702 43.8153L53.7643 37.5514L47.838 34.658L64.6903 0L79.5649 7.26059C83.3535 9.11197 85.9371 11.323 87.3155 13.8936C88.6939 16.4642 88.6857 19.1852 87.2909 22.0566C86.5042 23.7849 85.1932 25.2204 83.5446 26.1586C81.8803 27.0349 79.9927 27.3934 78.1237 27.1882C80.1873 28.9029 81.4729 30.7707 81.9806 32.7916ZM47.2517 52.4323L56.0922 48.4367L51.8018 45.3339L55.8342 39.043L61.8079 63.0275H40.4601L47.2517 52.4323ZM76.2977 36.3604C77.2639 34.3804 77.3076 32.5933 76.4287 30.999C75.5498 29.4047 73.7933 27.9662 71.1593 26.6837L60.338 21.4003L54.6305 33.1362L65.4518 38.4196C70.7581 41.0093 74.3733 40.3229 76.2977 36.3604ZM62.1682 17.6387L71.8021 22.3396C74.2068 23.5128 76.2758 23.9312 78.0091 23.5948C79.7424 23.2585 81.0594 22.1646 81.9601 20.3132C82.8609 18.4673 82.9045 16.7431 82.0911 15.1406C81.2777 13.5381 79.6864 12.1584 77.3172 11.0016L67.6791 6.30071L62.1682 17.6387ZM126.839 44.564C127.921 43.8047 128.893 42.953 129.753 42.0088C130.234 41.4815 130.671 40.9346 131.066 40.3679L138.347 47.2637L133.025 52.9163C132.781 51.6976 132.248 50.5554 131.473 49.5854C130.305 48.1206 129.045 46.7313 127.702 45.426L126.839 44.564ZM112.874 45.5845L99.6189 47.4112L95.7457 19.1564L110.629 17.1054C116.175 16.3397 120.586 16.9851 123.861 19.0416C126.54 20.7352 128.328 23.2502 129.224 26.5864L112.07 44.7697L112.874 45.5845ZM166.021 37.2135C167.898 35.6757 169.314 33.6488 170.115 31.3559C171.019 28.8015 171.342 26.077 171.061 23.3815C170.788 20.1983 169.722 17.7823 167.863 16.1332C166.004 14.4842 163.548 13.8006 160.493 14.0822C158.158 14.2596 155.933 15.1534 154.123 16.6419C152.249 18.1964 150.834 20.2328 150.028 22.5324C149.12 25.09 148.792 27.8186 149.07 30.519C149.343 33.7022 150.408 36.1074 152.264 37.7345C154.12 39.3616 156.576 40.0453 159.634 39.7855C161.974 39.6006 164.203 38.7032 166.021 37.2135ZM81.5999 61.596C80.1564 61.9441 78.6444 61.8802 77.2353 61.4114C75.8315 60.9321 74.6006 60.0471 73.6978 58.8681C72.4941 57.3312 71.9919 55.7779 72.1911 54.2082C72.3904 52.6385 73.2543 51.2507 74.7828 50.0447C76.0786 48.9696 77.6021 48.205 79.2374 47.8091C80.6799 47.4622 82.1906 47.5275 83.5979 47.9978C84.9969 48.4758 86.2225 49.3596 87.119 50.5369C88.3419 52.0875 88.8509 53.6463 88.6462 55.2132C88.4415 56.7802 87.5776 58.1667 86.0545 59.3727C84.757 60.4424 83.2337 61.2027 81.5999 61.596Z" fill="black"/>
</svg>
