<svg width="81" height="81" viewBox="0 0 81 81" fill="none" xmlns="http://www.w3.org/2000/svg">
<path d="M40.5 0L43.9784 14.079L50.9822 1.38L50.6981 15.8795L60.75 5.42597L56.7229 19.3579L69.1378 11.8622L61.6421 24.2771L75.574 20.25L65.1205 30.3019L79.62 30.0178L66.921 37.0216L81 40.5L66.921 43.9784L79.62 50.9822L65.1205 50.6981L75.574 60.75L61.6421 56.7229L69.1378 69.1378L56.7229 61.6421L60.75 75.574L50.6981 65.1205L50.9822 79.62L43.9784 66.921L40.5 81L37.0216 66.921L30.0178 79.62L30.3019 65.1205L20.25 75.574L24.2771 61.6421L11.8622 69.1378L19.3579 56.7229L5.42597 60.75L15.8795 50.6981L1.38 50.9822L14.079 43.9784L0 40.5L14.079 37.0216L1.38 30.0178L15.8795 30.3019L5.42597 20.25L19.3579 24.2771L11.8622 11.8622L24.2771 19.3579L20.25 5.42597L30.3019 15.8795L30.0178 1.38L37.0216 14.079L40.5 0Z" fill="black"/>
</svg>
