<svg width="1440" height="254" viewBox="0 0 1440 254" fill="none" xmlns="http://www.w3.org/2000/svg">
<path fill-rule="evenodd" clip-rule="evenodd" d="M21.3994 55.0283V0H0V254H22.2393V253.74H98.8457V254H120.246V253.74H200.751V254H220.112V253.74H300.616V254H322.016V253.74H400.482V254H421.883V253.74H500.348V254H521.748V253.74H597.156V254H617.536V253.74H691.087V254H713.327V253.74L713.325 146.742V5.09521H691.926V55.0283H617.536V5.09521H597.156V55.0283H521.748V5.09521H500.348V55.0283H421.883V3.05713H400.482V55.0283H322.016V5.09521H300.616V55.0283H220.112V1.01917H200.751V55.0283H120.246V5.09521H98.8457V55.0283H21.3994ZM1440 254V2.03809H1418.6V55.0281H1341.15V4.07605H1319.75V55.0281H1239.25V2.03796H1219.89V55.0281H1139.38V4.07605H1117.98V55.0281H1039.52V4.07605H1018.12V55.0281H939.651V4.07605H918.252V55.0281H842.843V5.09509H822.462V55.0281H748.074V4.07605H726.674V254H748.912V253.74H822.462V254H842.843V253.74H918.252V254H939.651V253.74H1018.12V254H1039.52V253.74H1117.98V254H1139.38V253.74H1219.89V254H1239.25V253.74H1319.75V254H1341.15V253.74H1417.76V254H1440ZM235.331 72.6998H282.897V143.078H235.331V72.6998ZM335.471 143.078V72.6998H383.039V143.078H335.471ZM434.361 143.078H481.928V72.6998H434.361V143.078ZM580.816 143.078H534.501V72.6998H580.816V143.078ZM632.139 143.078H675.951V72.6998H632.139V143.078ZM184.009 72.6998H136.441V143.078H184.009V72.6998ZM37.5527 72.6998H83.8682V143.078H37.5527V72.6998ZM764.049 72.6996V143.077H807.861V72.6996H764.049ZM905.497 143.077H859.184V72.6996H905.497V143.077ZM958.071 72.6996V143.077H1005.64V72.6996H958.071ZM1104.53 143.077H1056.96V72.6996H1104.53V143.077ZM1157.1 72.6996V143.077H1204.67V72.6996H1157.1ZM1303.56 143.077H1255.99V72.6996H1303.56V143.077ZM1356.13 72.6996V143.077H1402.45V72.6996H1356.13Z" fill="black"/>
</svg>
