<svg width="1440" height="416" viewBox="0 0 1440 416" fill="none" xmlns="http://www.w3.org/2000/svg">
<path fill-rule="evenodd" clip-rule="evenodd" d="M21.3994 55.0283V0H0V212V254V416H713V254H713.327V253.74L713.325 146.742V5.09521H691.926V55.0283H617.536V5.09521H597.156V55.0283H521.748V5.09521H500.348V55.0283H421.883V3.05713H400.482V55.0283H322.016V5.09521H300.616V55.0283H220.112V1.01904H200.751V55.0283H120.246V5.09521H98.8457V55.0283H21.3994ZM1440 212V2.03809H1418.6V55.0281H1341.15V4.07617H1319.75V55.0281H1239.25V2.03809H1219.89V55.0281H1139.38V4.07617H1117.98V55.0281H1039.52V4.07617H1018.12V55.0281H939.651V4.07617H918.252V55.0281H842.843V5.09521H822.462V55.0281H748.074V4.07617H726.674V254H727V416H1440V254V212ZM235.331 72.6997H282.897V143.078H235.331V72.6997ZM335.471 143.078V72.6997H383.039V143.078H335.471ZM434.361 143.078H481.928V72.6997H434.361V143.078ZM580.816 143.078H534.501V72.6997H580.816V143.078ZM632.139 143.078H675.951V72.6997H632.139V143.078ZM184.009 72.6997H136.441V143.078H184.009V72.6997ZM37.5527 72.6997H83.8682V143.078H37.5527V72.6997ZM764.049 72.6997V143.077H807.861V72.6997H764.049ZM905.497 143.077H859.184V72.6997H905.497V143.077ZM958.071 72.6997V143.077H1005.64V72.6997H958.071ZM1104.53 143.077H1056.96V72.6997H1104.53V143.077ZM1157.1 72.6997V143.077H1204.67V72.6997H1157.1ZM1303.56 143.077H1255.99V72.6997H1303.56V143.077ZM1356.13 72.6997V143.077H1402.45V72.6997H1356.13Z" fill="black"/>
</svg>
