<svg width="434" height="636" viewBox="0 0 434 636" fill="none" xmlns="http://www.w3.org/2000/svg">
<path d="M0 35C0 15.67 15.67 0 35 0H399C418.33 0 434 15.67 434 35V601C434 620.33 418.33 636 399 636H35C15.67 636 0 620.33 0 601V35Z" fill="black"/>
<path fill-rule="evenodd" clip-rule="evenodd" d="M399 23H35C28.3726 23 23 28.3726 23 35V601C23 607.627 28.3726 613 35 613H399C405.627 613 411 607.627 411 601V35C411 28.3726 405.627 23 399 23ZM35 0C15.67 0 0 15.67 0 35V601C0 620.33 15.67 636 35 636H399C418.33 636 434 620.33 434 601V35C434 15.67 418.33 0 399 0H35Z" fill="black"/>
<path d="M161.439 577.73H156.699C157.119 575.55 158.029 573.94 159.429 572.9C160.849 571.86 162.479 571.34 164.319 571.34C166.339 571.34 167.989 571.86 169.269 572.9C170.549 573.92 171.189 575.28 171.189 576.98C171.189 578.9 170.519 580.43 169.179 581.57C170.999 582.73 171.909 584.43 171.909 586.67C171.909 588.71 171.179 590.34 169.719 591.56C168.279 592.76 166.489 593.36 164.349 593.36C162.189 593.36 160.299 592.74 158.679 591.5C157.059 590.26 156.139 588.53 155.919 586.31H160.689C161.169 588.01 162.369 588.86 164.289 588.86C165.269 588.86 166.009 588.63 166.509 588.17C167.009 587.71 167.259 587.09 167.259 586.31C167.259 585.63 167.029 585.09 166.569 584.69C166.109 584.27 165.479 584.06 164.679 584.06H162.129V580.04H164.379C165.079 580.04 165.619 579.85 165.999 579.47C166.379 579.07 166.569 578.54 166.569 577.88C166.569 577.24 166.359 576.72 165.939 576.32C165.539 575.92 164.969 575.72 164.229 575.72C162.849 575.72 161.919 576.39 161.439 577.73Z" fill="#FAF6F1"/>
<path d="M181.923 593.33C179.603 593.33 177.693 592.59 176.193 591.11C174.713 589.63 173.973 587.75 173.973 585.47C173.973 583.23 174.723 581.37 176.223 579.89C177.743 578.41 179.643 577.67 181.923 577.67C183.023 577.67 184.053 577.86 185.013 578.24C185.993 578.62 186.853 579.17 187.593 579.89C188.353 580.61 188.943 581.54 189.363 582.68C189.783 583.82 189.973 585.11 189.933 586.55H178.383C178.463 587.37 178.823 588.06 179.463 588.62C180.103 589.16 181.003 589.43 182.163 589.43C182.823 589.43 183.423 589.3 183.963 589.04C184.503 588.76 184.863 588.42 185.043 588.02H189.783C189.303 589.6 188.343 590.88 186.903 591.86C185.463 592.84 183.803 593.33 181.923 593.33ZM181.803 581.27C180.943 581.27 180.223 581.49 179.643 581.93C179.083 582.37 178.703 582.95 178.503 583.67H184.923C184.703 582.85 184.293 582.25 183.693 581.87C183.113 581.47 182.483 581.27 181.803 581.27Z" fill="#FAF6F1"/>
<path d="M197.274 599.27H192.744V578H197.274V579.5C197.594 579.02 198.124 578.6 198.864 578.24C199.604 577.86 200.434 577.67 201.354 577.67C203.294 577.67 204.934 578.44 206.274 579.98C207.634 581.52 208.314 583.36 208.314 585.5C208.314 587.64 207.634 589.48 206.274 591.02C204.934 592.56 203.294 593.33 201.354 593.33C200.434 593.33 199.604 593.15 198.864 592.79C198.124 592.41 197.594 591.98 197.274 591.5V599.27ZM197.844 588.17C198.484 588.87 199.314 589.22 200.334 589.22C201.354 589.22 202.174 588.87 202.794 588.17C203.434 587.47 203.754 586.58 203.754 585.5C203.754 584.42 203.434 583.53 202.794 582.83C202.174 582.13 201.354 581.78 200.334 581.78C199.314 581.78 198.484 582.13 197.844 582.83C197.224 583.53 196.914 584.42 196.914 585.5C196.914 586.58 197.224 587.47 197.844 588.17Z" fill="#FAF6F1"/>
<path d="M220.892 593L215.672 587.18V593H211.142V578H215.672V583.91L220.322 578H225.632L219.692 585.41L226.622 593H220.892Z" fill="#FAF6F1"/>
<path d="M233.111 593.33C231.171 593.33 229.521 592.56 228.161 591.02C226.821 589.48 226.151 587.64 226.151 585.5C226.151 583.36 226.821 581.52 228.161 579.98C229.521 578.44 231.171 577.67 233.111 577.67C234.831 577.67 236.191 578.28 237.191 579.5V578H241.721V593H237.191V591.5C236.191 592.72 234.831 593.33 233.111 593.33ZM231.641 588.17C232.281 588.87 233.111 589.22 234.131 589.22C235.151 589.22 235.971 588.87 236.591 588.17C237.231 587.47 237.551 586.58 237.551 585.5C237.551 584.42 237.231 583.53 236.591 582.83C235.971 582.13 235.151 581.78 234.131 581.78C233.111 581.78 232.281 582.13 231.641 582.83C231.021 583.53 230.711 584.42 230.711 585.5C230.711 586.58 231.021 587.47 231.641 588.17Z" fill="#FAF6F1"/>
<path d="M246.259 593.33C245.339 593.33 244.639 593.28 244.159 593.18V589.34C244.599 589.38 244.949 589.4 245.209 589.4C245.849 589.4 246.319 589.22 246.619 588.86C246.919 588.5 247.069 587.84 247.069 586.88V578H260.239V593H255.709V581.93H251.599V587.36C251.599 589.34 251.079 590.83 250.039 591.83C248.999 592.83 247.739 593.33 246.259 593.33Z" fill="#FAF6F1"/>
<path d="M276.505 591.08C274.965 592.58 273.105 593.33 270.925 593.33C268.745 593.33 266.885 592.58 265.345 591.08C263.805 589.56 263.035 587.7 263.035 585.5C263.035 583.3 263.805 581.45 265.345 579.95C266.885 578.43 268.745 577.67 270.925 577.67C273.105 577.67 274.965 578.43 276.505 579.95C278.045 581.45 278.815 583.3 278.815 585.5C278.815 587.7 278.045 589.56 276.505 591.08ZM268.525 588.11C269.165 588.77 269.965 589.1 270.925 589.1C271.885 589.1 272.675 588.77 273.295 588.11C273.935 587.45 274.255 586.58 274.255 585.5C274.255 584.42 273.935 583.55 273.295 582.89C272.675 582.23 271.885 581.9 270.925 581.9C269.965 581.9 269.165 582.23 268.525 582.89C267.905 583.55 267.595 584.42 267.595 585.5C267.595 586.58 267.905 587.45 268.525 588.11Z" fill="#FAF6F1"/>
<path fill-rule="evenodd" clip-rule="evenodd" d="M284.246 330.77C296.934 313.044 306.24 290.298 310.469 264.702L259 295L312.537 246.964C312.843 242.537 313 238.046 313 233.5C313 202.234 305.577 173.556 293.223 150.657L139 260.5L285.445 137.934C285.049 137.361 284.649 136.793 284.246 136.23C281.837 132.864 279.313 129.687 276.684 126.709L163 203L266.221 116.381C261.815 112.62 257.197 109.36 252.405 106.643L195 143L238.217 100.372C231.359 98.1571 224.254 97 217 97C191.268 97 167.412 111.561 149.754 136.23C132.104 160.888 121 195.259 121 233.5C121 260.863 126.685 286.244 136.386 307.504L246.955 240.884L143.255 320.746C145.306 324.241 147.475 327.587 149.754 330.77C167.412 355.439 191.268 370 217 370C242.732 370 266.588 355.439 284.246 330.77ZM319 233.5C319 306.935 279.239 367.397 228.153 375.158L236 486H200L206.857 375.304C155.286 368.192 115 307.419 115 233.5C115 154.799 160.667 91 217 91C273.333 91 319 154.799 319 233.5Z" fill="#FAF6F1"/>
</svg>
