<svg width="434" height="636" viewBox="0 0 434 636" fill="none" xmlns="http://www.w3.org/2000/svg">
<path d="M0 35C0 15.67 15.67 0 35 0H399C418.33 0 434 15.67 434 35V601C434 620.33 418.33 636 399 636H35C15.67 636 0 620.33 0 601V35Z" fill="black"/>
<path fill-rule="evenodd" clip-rule="evenodd" d="M399 23H35C28.3726 23 23 28.3726 23 35V601C23 607.627 28.3726 613 35 613H399C405.627 613 411 607.627 411 601V35C411 28.3726 405.627 23 399 23ZM35 0C15.67 0 0 15.67 0 35V601C0 620.33 15.67 636 35 636H399C418.33 636 434 620.33 434 601V35C434 15.67 418.33 0 399 0H35Z" fill="black"/>
<path d="M140.091 573.8C141.531 575.2 142.251 576.93 142.251 578.99C142.251 581.05 141.531 582.78 140.091 584.18C138.671 585.56 136.891 586.25 134.751 586.25H132.291V593H127.521V571.7H134.751C136.891 571.7 138.671 572.4 140.091 573.8ZM137.631 578.99C137.631 578.19 137.351 577.53 136.791 577.01C136.251 576.47 135.551 576.2 134.691 576.2H132.291V581.78H134.691C135.531 581.78 136.231 581.51 136.791 580.97C137.351 580.43 137.631 579.77 137.631 578.99Z" fill="#FAF6F1"/>
<path d="M151.262 593.33C148.942 593.33 147.032 592.59 145.532 591.11C144.052 589.63 143.312 587.75 143.312 585.47C143.312 583.23 144.062 581.37 145.562 579.89C147.082 578.41 148.982 577.67 151.262 577.67C152.362 577.67 153.392 577.86 154.352 578.24C155.332 578.62 156.192 579.17 156.932 579.89C157.692 580.61 158.282 581.54 158.702 582.68C159.122 583.82 159.312 585.11 159.272 586.55H147.722C147.802 587.37 148.162 588.06 148.802 588.62C149.442 589.16 150.342 589.43 151.502 589.43C152.162 589.43 152.762 589.3 153.302 589.04C153.842 588.76 154.202 588.42 154.382 588.02H159.122C158.642 589.6 157.682 590.88 156.242 591.86C154.802 592.84 153.142 593.33 151.262 593.33ZM151.142 581.27C150.282 581.27 149.562 581.49 148.982 581.93C148.422 582.37 148.042 582.95 147.842 583.67H154.262C154.042 582.85 153.632 582.25 153.032 581.87C152.452 581.47 151.822 581.27 151.142 581.27Z" fill="#FAF6F1"/>
<path d="M171.833 593L166.613 587.18V593H162.083V578H166.613V583.91L171.263 578H176.573L170.633 585.41L177.563 593H171.833Z" fill="#FAF6F1"/>
<path d="M184.051 593.33C182.111 593.33 180.461 592.56 179.101 591.02C177.761 589.48 177.091 587.64 177.091 585.5C177.091 583.36 177.761 581.52 179.101 579.98C180.461 578.44 182.111 577.67 184.051 577.67C185.771 577.67 187.131 578.28 188.131 579.5V578H192.661V593H188.131V591.5C187.131 592.72 185.771 593.33 184.051 593.33ZM182.581 588.17C183.221 588.87 184.051 589.22 185.071 589.22C186.091 589.22 186.911 588.87 187.531 588.17C188.171 587.47 188.491 586.58 188.491 585.5C188.491 584.42 188.171 583.53 187.531 582.83C186.911 582.13 186.091 581.78 185.071 581.78C184.051 581.78 183.221 582.13 182.581 582.83C181.961 583.53 181.651 584.42 181.651 585.5C181.651 586.58 181.961 587.47 182.581 588.17Z" fill="#FAF6F1"/>
<path d="M207.178 593H203.128V578H207.658V586.28L213.898 578H217.948V593H213.448V584.75L207.178 593Z" fill="#FAF6F1"/>
<path d="M232.941 599.27H228.411V578H232.941V579.5C233.261 579.02 233.791 578.6 234.531 578.24C235.271 577.86 236.101 577.67 237.021 577.67C238.961 577.67 240.601 578.44 241.941 579.98C243.301 581.52 243.981 583.36 243.981 585.5C243.981 587.64 243.301 589.48 241.941 591.02C240.601 592.56 238.961 593.33 237.021 593.33C236.101 593.33 235.271 593.15 234.531 592.79C233.791 592.41 233.261 591.98 232.941 591.5V599.27ZM233.511 588.17C234.151 588.87 234.981 589.22 236.001 589.22C237.021 589.22 237.841 588.87 238.461 588.17C239.101 587.47 239.421 586.58 239.421 585.5C239.421 584.42 239.101 583.53 238.461 582.83C237.841 582.13 237.021 581.78 236.001 581.78C234.981 581.78 234.151 582.13 233.511 582.83C232.891 583.53 232.581 584.42 232.581 585.5C232.581 586.58 232.891 587.47 233.511 588.17Z" fill="#FAF6F1"/>
<path d="M261.449 593V578H265.979V593H261.449ZM246.809 593V578H251.339V582.2H253.979C254.759 582.2 255.469 582.32 256.109 582.56C256.749 582.78 257.269 583.08 257.669 583.46C258.089 583.82 258.439 584.24 258.719 584.72C258.999 585.2 259.199 585.68 259.319 586.16C259.439 586.62 259.499 587.08 259.499 587.54C259.499 588.12 259.399 588.72 259.199 589.34C258.999 589.94 258.689 590.52 258.269 591.08C257.869 591.64 257.289 592.1 256.529 592.46C255.789 592.82 254.939 593 253.979 593H246.809ZM251.339 586.04V589.16H253.409C254.649 589.16 255.269 588.63 255.269 587.57C255.269 586.55 254.649 586.04 253.409 586.04H251.339Z" fill="#FAF6F1"/>
<path d="M277.01 593.33C274.45 593.33 272.5 592.51 271.16 590.87C269.84 589.23 269.18 586.92 269.18 583.94V583.25C269.18 579.43 269.95 576.63 271.49 574.85C273.03 573.05 275.33 571.87 278.39 571.31L283.55 570.38V574.67L279.38 575.42C277.74 575.72 276.46 576.21 275.54 576.89C274.62 577.57 274.07 578.55 273.89 579.83C274.97 578.91 276.3 578.45 277.88 578.45C280.04 578.45 281.74 579.12 282.98 580.46C284.24 581.8 284.87 583.48 284.87 585.5C284.87 587.7 284.11 589.56 282.59 591.08C281.07 592.58 279.21 593.33 277.01 593.33ZM274.58 588.2C275.2 588.8 276 589.1 276.98 589.1C277.96 589.1 278.76 588.8 279.38 588.2C280 587.6 280.31 586.74 280.31 585.62C280.31 584.74 280 583.98 279.38 583.34C278.76 582.7 277.96 582.38 276.98 582.38C276 582.38 275.2 582.7 274.58 583.34C273.98 583.98 273.68 584.74 273.68 585.62C273.68 586.74 273.98 587.6 274.58 588.2Z" fill="#FAF6F1"/>
<path d="M302.348 593V578H306.878V593H302.348ZM287.708 593V578H292.238V582.2H294.878C295.658 582.2 296.368 582.32 297.008 582.56C297.648 582.78 298.168 583.08 298.568 583.46C298.988 583.82 299.338 584.24 299.618 584.72C299.898 585.2 300.098 585.68 300.218 586.16C300.338 586.62 300.398 587.08 300.398 587.54C300.398 588.12 300.298 588.72 300.098 589.34C299.898 589.94 299.588 590.52 299.168 591.08C298.768 591.64 298.188 592.1 297.428 592.46C296.688 592.82 295.838 593 294.878 593H287.708ZM292.238 586.04V589.16H294.308C295.548 589.16 296.168 588.63 296.168 587.57C296.168 586.55 295.548 586.04 294.308 586.04H292.238Z" fill="#FAF6F1"/>
<path fill-rule="evenodd" clip-rule="evenodd" d="M261.128 129.844C249.459 140.856 227.872 157.335 203.17 157.335C166.073 157.335 136 120.168 136 120.168C136 120.168 166.073 83 203.17 83C227.872 83 249.459 99.479 261.128 110.492L298.776 88.7551V151.58L261.128 129.844Z" fill="#FAF6F1"/>
<path fill-rule="evenodd" clip-rule="evenodd" d="M261.128 290.844C249.459 301.856 227.872 318.335 203.17 318.335C166.073 318.335 136 281.168 136 281.168C136 281.168 166.073 244 203.17 244C227.872 244 249.459 260.479 261.128 271.492L298.776 249.755V312.58L261.128 290.844Z" fill="#FAF6F1"/>
<path fill-rule="evenodd" clip-rule="evenodd" d="M261.128 451.844C249.459 462.856 227.872 479.335 203.17 479.335C166.073 479.335 136 442.168 136 442.168C136 442.168 166.073 405 203.17 405C227.872 405 249.459 421.479 261.128 432.492L298.776 410.755V473.58L261.128 451.844Z" fill="#FAF6F1"/>
</svg>
