<svg width="434" height="636" viewBox="0 0 434 636" fill="none" xmlns="http://www.w3.org/2000/svg">
<path d="M0 35C0 15.67 15.67 0 35 0H399C418.33 0 434 15.67 434 35V601C434 620.33 418.33 636 399 636H35C15.67 636 0 620.33 0 601V35Z" fill="black"/>
<path fill-rule="evenodd" clip-rule="evenodd" d="M399 23H35C28.3726 23 23 28.3726 23 35V601C23 607.627 28.3726 613 35 613H399C405.627 613 411 607.627 411 601V35C411 28.3726 405.627 23 399 23ZM35 0C15.67 0 0 15.67 0 35V601C0 620.33 15.67 636 35 636H399C418.33 636 434 620.33 434 601V35C434 15.67 418.33 0 399 0H35Z" fill="black"/>
<path d="M199.563 593.36C196.343 593.36 193.673 592.3 191.553 590.18C189.433 588.06 188.373 585.45 188.373 582.35C188.373 579.25 189.433 576.64 191.553 574.52C193.673 572.4 196.343 571.34 199.563 571.34C201.943 571.34 204.113 572.05 206.073 573.47C208.053 574.87 209.333 576.72 209.913 579.02H204.723C204.263 578.04 203.563 577.29 202.623 576.77C201.683 576.23 200.663 575.96 199.563 575.96C197.643 575.96 196.093 576.57 194.913 577.79C193.753 579.01 193.173 580.53 193.173 582.35C193.173 584.17 193.753 585.69 194.913 586.91C196.093 588.13 197.643 588.74 199.563 588.74C200.663 588.74 201.683 588.48 202.623 587.96C203.563 587.42 204.263 586.66 204.723 585.68H209.913C209.333 587.98 208.053 589.84 206.073 591.26C204.113 592.66 201.943 593.36 199.563 593.36Z" fill="#FAF6F1"/>
<path d="M225.043 591.08C223.503 592.58 221.643 593.33 219.463 593.33C217.283 593.33 215.423 592.58 213.883 591.08C212.343 589.56 211.573 587.7 211.573 585.5C211.573 583.3 212.343 581.45 213.883 579.95C215.423 578.43 217.283 577.67 219.463 577.67C221.643 577.67 223.503 578.43 225.043 579.95C226.583 581.45 227.353 583.3 227.353 585.5C227.353 587.7 226.583 589.56 225.043 591.08ZM217.063 588.11C217.703 588.77 218.503 589.1 219.463 589.1C220.423 589.1 221.213 588.77 221.833 588.11C222.473 587.45 222.793 586.58 222.793 585.5C222.793 584.42 222.473 583.55 221.833 582.89C221.213 582.23 220.423 581.9 219.463 581.9C218.503 581.9 217.703 582.23 217.063 582.89C216.443 583.55 216.133 584.42 216.133 585.5C216.133 586.58 216.443 587.45 217.063 588.11Z" fill="#FAF6F1"/>
<path d="M230.139 593V578H234.669V583.52H240.309V578H244.839V593H240.309V587.45H234.669V593H230.139Z" fill="#FAF6F1"/>
<path fill-rule="evenodd" clip-rule="evenodd" d="M180 357.57C214.438 348.848 239.919 317.65 239.919 280.5C239.919 243.35 214.438 212.152 180 203.43C186.264 201.843 192.824 201 199.581 201C243.488 201 279.081 236.593 279.081 280.5C279.081 324.407 243.488 360 199.581 360C192.824 360 186.264 359.157 180 357.57Z" fill="#FAF6F1"/>
<path d="M116.5 256L120.225 276.775L141 280.5L120.225 284.225L116.5 305L112.775 284.225L92 280.5L112.775 276.775L116.5 256Z" fill="#FAF6F1"/>
<path d="M254.5 66L258.225 86.7753L279 90.5L258.225 94.2247L254.5 115L250.775 94.2247L230 90.5L250.775 86.7753L254.5 66Z" fill="#FAF6F1"/>
<path d="M270.5 446L276.657 480.343L311 486.5L276.657 492.657L270.5 527L264.343 492.657L230 486.5L264.343 480.343L270.5 446Z" fill="#FAF6F1"/>
<path d="M357.5 120L363.657 154.343L398 160.5L363.657 166.657L357.5 201L351.343 166.657L317 160.5L351.343 154.343L357.5 120Z" fill="#FAF6F1"/>
<path d="M75.5 39L81.6571 73.3429L116 79.5L81.6571 85.6571L75.5 120L69.3429 85.6571L35 79.5L69.3429 73.3429L75.5 39Z" fill="#FAF6F1"/>
<path d="M380 345L384.561 370.439L410 375L384.561 379.561L380 405L375.439 379.561L350 375L375.439 370.439L380 345Z" fill="#FAF6F1"/>
<path d="M81.5 405L87.6571 439.343L122 445.5L87.6571 451.657L81.5 486L75.3429 451.657L41 445.5L75.3429 439.343L81.5 405Z" fill="#FAF6F1"/>
</svg>
