<svg width="665" height="665" viewBox="0 0 665 665" fill="none" xmlns="http://www.w3.org/2000/svg">
<path fill-rule="evenodd" clip-rule="evenodd" d="M244.467 389.83L143.836 490.461C137.406 486.639 130.408 483.671 123 481.714V410.286C150.741 402.958 172.723 381.458 180.731 354H230.01C232.59 366.969 237.569 379.073 244.467 389.83ZM81 410.286C53.2593 402.958 31.2773 381.458 23.2694 354H0V634.297L31.4606 602.836C24.1806 590.588 20 576.282 20 561C20 522.972 45.8868 490.989 81 481.714V410.286ZM182.018 313H230.01C232.818 298.88 238.472 285.786 246.348 274.339L140.452 168.444C134.975 171.357 129.128 173.667 123 175.286V251.714C152.403 259.481 175.337 283.171 182.018 313ZM20 96C20 134.028 45.8868 166.011 81 175.286V251.714C51.5965 259.481 28.6628 283.171 21.9818 313H0V27.9912L29.5563 57.5476C23.4564 69.0159 20 82.1043 20 96ZM275.737 245.746L170.731 140.739C176.339 132.141 180.378 122.426 182.44 112L250.488 112C254.2 145.999 278.695 173.753 311 182.286V231.214C298.235 233.884 286.326 238.882 275.737 245.746ZM256.911 70L179.792 70C168.921 37.4568 138.2 14 102 14C85.4936 14 70.1263 18.8772 57.2606 27.269L29.9915 0H311V23.7137C286.726 30.1259 266.862 47.3893 256.911 70ZM352 182.544V230.816C365.347 233.335 377.797 238.392 388.83 245.467L493.383 140.914C487.716 132.273 483.636 122.497 481.56 112L413.512 112C409.762 146.349 384.798 174.323 352 182.544ZM562 14C525.8 14 495.079 37.4569 484.208 70L407.089 70C397.002 47.0796 376.727 29.6539 352 23.4564V0H634.297L606.914 27.3832C594.013 18.9214 578.581 14 562 14ZM418.362 273.918L523.736 168.544C528.86 171.252 534.305 173.433 540 175.015V249.985C510.426 258.201 487.578 282.575 481.56 313H434.99C432.147 298.707 426.389 285.465 418.362 273.918ZM582 249.456V175.544C617.621 166.616 644 134.389 644 96C644 82.1804 640.581 69.1593 634.544 57.7362L665 27.2799V313H642.44C636.287 281.892 612.54 257.111 582 249.456ZM483.881 354H434.99C432.376 367.143 427.296 379.398 420.254 390.263L520.345 490.353C526.435 486.755 533.031 483.921 540 481.985V408.015C513.406 400.626 492.249 380.172 483.881 354ZM582 408.544V481.456C617.621 490.384 644 522.611 644 561C644 576.207 639.86 590.447 632.647 602.655L665 635.008V354H640.119C631.542 380.824 609.531 401.643 582 408.544ZM102 643C86.8682 643 72.6938 638.901 60.5262 631.754L27.2799 665H311V640.286C283.259 632.958 261.277 611.458 253.269 584H180.731C170.788 618.092 139.303 643 102 643ZM181.788 542H252.212C259.177 512.642 281.926 489.394 311 481.714V435.786C297.089 432.877 284.195 427.201 272.918 419.362L172.754 519.526C176.812 526.435 179.887 533.99 181.788 542ZM391.661 419.652L491.353 519.345C487.242 526.302 484.129 533.92 482.212 542H411.788C404.743 512.306 381.552 488.863 352 481.456V436.184C366.502 433.447 379.945 427.714 391.661 419.652ZM410.731 584H483.269C493.212 618.092 524.697 643 562 643C577.207 643 591.447 638.86 603.655 631.647L637.009 665H352V640.544C380.212 633.473 402.627 611.787 410.731 584Z" fill="#3D743F"/>
</svg>
