<svg width="1420" height="1410" viewBox="0 0 1420 1410" fill="none" xmlns="http://www.w3.org/2000/svg">
<path fill-rule="evenodd" clip-rule="evenodd" d="M689 841.965C575.208 852.219 484.658 943.073 474.876 1057H514.051C523.577 964.629 596.766 891.143 689 881.157V841.965ZM689 1273.84C596.766 1263.86 523.577 1190.37 514.051 1098H474.876C484.658 1211.93 575.208 1302.78 689 1313.04V1273.84ZM730 1313.21V1274.05C823.174 1264.92 897.354 1191.04 906.949 1098H946.124C936.285 1212.59 844.729 1303.84 730 1313.21ZM730 880.951V841.793C844.729 851.156 936.285 942.407 946.124 1057H906.949C897.354 963.963 823.174 890.083 730 880.951Z" fill="#3D743F"/>
<path fill-rule="evenodd" clip-rule="evenodd" d="M1013.01 1410L891.156 1288.15C842.611 1329.82 779.496 1355 710.5 1355C641.898 1355 579.11 1330.11 530.676 1288.86L409.536 1410H1013.01ZM920.221 1259.23C962.446 1210.54 988 1147.01 988 1077.5C988 1008.9 963.106 946.11 921.859 897.676L1043 776.536V1382.01L920.221 1259.23ZM528.77 867.779L405.991 745H1016.55L893.055 868.498C844.262 825.844 780.399 800 710.5 800C640.994 800 577.457 825.554 528.77 867.779ZM378 774.991L499.852 896.844C458.18 945.389 433 1008.5 433 1077.5C433 1147.4 458.844 1211.26 501.498 1260.06L378 1383.55V774.991Z" fill="#3D743F"/>
<path fill-rule="evenodd" clip-rule="evenodd" d="M710 1215C785.663 1215 847 1153.66 847 1078C847 1002.34 785.663 941 710 941C634.337 941 573 1002.34 573 1078C573 1153.66 634.337 1215 710 1215ZM710.5 1195C775.393 1195 828 1142.39 828 1077.5C828 1012.61 775.393 960 710.5 960C645.607 960 593 1012.61 593 1077.5C593 1142.39 645.607 1195 710.5 1195Z" fill="black"/>
<circle cx="710.5" cy="1078.5" r="52.5" fill="#34A3B2"/>
<path fill-rule="evenodd" clip-rule="evenodd" d="M710 1183C767.99 1183 815 1135.99 815 1078C815 1020.01 767.99 973 710 973C652.01 973 605 1020.01 605 1078C605 1135.99 652.01 1183 710 1183ZM710 1135C741.48 1135 767 1109.48 767 1078C767 1046.52 741.48 1021 710 1021C678.52 1021 653 1046.52 653 1078C653 1109.48 678.52 1135 710 1135Z" fill="#34A3B2"/>
<path fill-rule="evenodd" clip-rule="evenodd" d="M222 1409L87 1409L87 999.452C105.527 1014.19 128.985 1023 154.5 1023C180.015 1023 203.473 1014.19 222 999.452L222 1409ZM262.999 914C262.73 854.307 214.256 806 154.5 806C95.0778 806 46.8127 853.769 46.0101 913L46 913L46 914.418C46 914.445 46 914.473 46 914.5C46 914.527 46 914.555 46 914.582L46 1409L0 1409L-4.44982e-05 900C-5.19819e-05 814.396 69.3958 745 155 745C240.604 745 310 814.396 310 900L310 1409L263 1409L263 914.5L263 914L262.999 914Z" fill="#3D743F"/>
<circle cx="155" cy="914" r="57" transform="rotate(180 155 914)" fill="#3D743F"/>
<path fill-rule="evenodd" clip-rule="evenodd" d="M1331 1409L1196 1409L1196 999.452C1214.53 1014.19 1237.98 1023 1263.5 1023C1289.02 1023 1312.47 1014.19 1331 999.452L1331 1409ZM1372 914C1371.73 854.307 1323.26 806 1263.5 806C1204.08 806 1155.81 853.769 1155.01 913L1155 913L1155 914.418C1155 914.445 1155 914.473 1155 914.5C1155 914.527 1155 914.555 1155 914.582L1155 1409L1109 1409L1109 900C1109 814.396 1178.4 745 1264 745C1349.6 745 1419 814.396 1419 900L1419 1409L1372 1409L1372 914.5L1372 914L1372 914Z" fill="#3D743F"/>
<circle cx="1264" cy="914" r="57" transform="rotate(180 1264 914)" fill="#3D743F"/>
<path d="M604.215 561.221C604.215 585.644 584.691 605.443 560.607 605.443C536.524 605.443 517 585.644 517 561.221C517 536.799 536.524 517 560.607 517C584.691 517 604.215 536.799 604.215 561.221Z" fill="black"/>
<path d="M378.215 561.221C378.215 585.644 358.691 605.443 334.607 605.443C310.524 605.443 291 585.644 291 561.221C291 536.799 310.524 517 334.607 517C358.691 517 378.215 536.799 378.215 561.221Z" fill="#34A3B2"/>
<path d="M145.215 99.2215C145.215 123.644 125.691 143.443 101.607 143.443C77.5236 143.443 58 123.644 58 99.2215C58 74.7986 77.5236 55 101.607 55C125.691 55 145.215 74.7986 145.215 99.2215Z" fill="#FF9045"/>
<rect x="63" y="293" width="79" height="79" fill="black"/>
<rect x="279" y="331.861" width="79" height="79" transform="rotate(-45 279 331.861)" fill="#F44719"/>
<rect x="46" y="560.861" width="79" height="79" transform="rotate(-45 46 560.861)" fill="#FF9045"/>
<path d="M561 280L607.765 361H514.235L561 280Z" fill="#34A3B2"/>
<path d="M335 51L381.765 132H288.235L335 51Z" fill="black"/>
<path fill-rule="evenodd" clip-rule="evenodd" d="M244.467 389.83L143.836 490.461C137.406 486.639 130.408 483.671 123 481.714V410.286C150.741 402.958 172.723 381.458 180.731 354H230.01C232.59 366.969 237.569 379.073 244.467 389.83ZM81 410.286C53.2593 402.958 31.2773 381.458 23.2694 354H0V634.297L31.4606 602.836C24.1806 590.588 20 576.282 20 561C20 522.972 45.8868 490.989 81 481.714V410.286ZM182.018 313H230.01C232.818 298.88 238.472 285.786 246.348 274.339L140.452 168.444C134.975 171.357 129.128 173.667 123 175.286V251.714C152.403 259.481 175.337 283.171 182.018 313ZM20 96C20 134.028 45.8868 166.011 81 175.286V251.714C51.5965 259.481 28.6628 283.171 21.9818 313H0V27.9912L29.5563 57.5476C23.4564 69.0159 20 82.1043 20 96ZM275.737 245.746L170.731 140.739C176.339 132.141 180.378 122.426 182.44 112L250.488 112C254.2 145.999 278.695 173.753 311 182.286V231.214C298.235 233.884 286.326 238.882 275.737 245.746ZM256.911 70L179.792 70C168.921 37.4568 138.2 14 102 14C85.4936 14 70.1263 18.8772 57.2606 27.269L29.9915 0H311V23.7137C286.726 30.1259 266.862 47.3893 256.911 70ZM352 182.544V230.816C365.347 233.335 377.797 238.392 388.83 245.467L493.383 140.914C487.716 132.273 483.636 122.497 481.56 112L413.512 112C409.762 146.349 384.798 174.323 352 182.544ZM562 14C525.8 14 495.079 37.4569 484.208 70L407.089 70C397.002 47.0796 376.727 29.6539 352 23.4564V0H634.297L606.914 27.3832C594.013 18.9214 578.581 14 562 14ZM418.362 273.918L523.736 168.544C528.86 171.252 534.305 173.433 540 175.015V249.985C510.426 258.201 487.578 282.575 481.56 313H434.99C432.147 298.707 426.389 285.465 418.362 273.918ZM582 249.456V175.544C617.621 166.616 644 134.389 644 96C644 82.1804 640.581 69.1593 634.544 57.7362L665 27.2799V313H642.44C636.287 281.892 612.54 257.111 582 249.456ZM483.881 354H434.99C432.376 367.143 427.296 379.398 420.254 390.263L520.345 490.353C526.435 486.755 533.031 483.921 540 481.985V408.015C513.406 400.626 492.249 380.172 483.881 354ZM582 408.544V481.456C617.621 490.384 644 522.611 644 561C644 576.207 639.86 590.447 632.647 602.655L665 635.008V354H640.119C631.542 380.824 609.531 401.643 582 408.544ZM102 643C86.8682 643 72.6938 638.901 60.5262 631.754L27.2799 665H311V640.286C283.259 632.958 261.277 611.458 253.269 584H180.731C170.788 618.092 139.303 643 102 643ZM181.788 542H252.212C259.177 512.642 281.926 489.394 311 481.714V435.786C297.089 432.877 284.195 427.201 272.918 419.362L172.754 519.526C176.812 526.435 179.887 533.99 181.788 542ZM391.661 419.652L491.353 519.345C487.242 526.302 484.129 533.92 482.212 542H411.788C404.743 512.306 381.552 488.863 352 481.456V436.184C366.502 433.447 379.945 427.714 391.661 419.652ZM410.731 584H483.269C493.212 618.092 524.697 643 562 643C577.207 643 591.447 638.86 603.655 631.647L637.009 665H352V640.544C380.212 633.473 402.627 611.787 410.731 584Z" fill="#3D743F"/>
<path fill-rule="evenodd" clip-rule="evenodd" d="M1420 0H755V665H1078.39L1078.4 650H1078.41V632.648C916.264 628.099 786.221 495.231 786.221 331.989C786.221 165.873 920.884 31.2094 1087 31.2094C1253.12 31.2094 1387.78 165.873 1387.78 331.989C1387.78 494.118 1259.5 626.286 1098.91 632.537L1098.91 650L1098.96 665H1420V0ZM1087.51 602.438C1236.59 602.438 1357.45 481.58 1357.45 332.494C1357.45 261.325 1329.91 196.589 1284.9 148.362L1268.64 164.625C1309.34 208.761 1334.2 267.725 1334.2 332.495C1334.2 469.296 1223.3 580.195 1086.49 580.195C1021.72 580.195 962.761 555.336 918.625 514.638L903.372 529.89C951.6 574.896 1016.34 602.438 1087.51 602.438ZM1254.13 150.139L1270.36 133.913C1222.27 89.6093 1158.05 62.5512 1087.51 62.5512C1016.39 62.5512 951.702 90.0489 903.487 134.992L918.74 150.245C962.864 109.61 1021.78 84.7937 1086.49 84.7937C1151.15 84.7937 1210.02 109.567 1254.13 150.139ZM904.245 164.74L889.03 149.525C844.664 197.628 817.562 261.896 817.562 332.494C817.562 403.036 844.62 467.258 888.923 515.348L904.139 500.133C863.566 456.022 838.793 397.151 838.793 332.495C838.793 267.781 863.61 208.864 904.245 164.74ZM1233.45 494.952C1194.77 529.721 1143.61 550.876 1087.5 550.876C970.379 550.876 874.79 458.668 869.367 342.884H890.626C896.027 446.378 981.655 528.633 1086.49 528.633C1136.71 528.633 1182.52 509.761 1217.22 478.723L1233.45 494.952ZM1248.04 480.552C1283.95 441.633 1305.89 389.626 1305.89 332.495C1305.89 215.028 1213.14 119.223 1096.88 114.311V136.626C1200.38 142.027 1282.63 227.655 1282.63 332.494C1282.63 383.226 1263.37 429.46 1231.76 464.281L1248.04 480.552ZM1076.38 114.392V136.612C976.106 141.704 895.704 222.107 890.612 322.384H869.354C874.468 210.157 964.29 120.015 1076.38 114.392ZM1253.04 322.384C1248.06 235.001 1175.63 165.676 1087 165.676C995.147 165.676 920.687 240.137 920.687 331.989C920.687 420.275 989.478 492.495 1076.38 497.969V477.702C1000.65 472.264 940.907 409.104 940.907 331.989C940.907 251.304 1006.31 185.896 1087 185.896C1164.46 185.896 1227.84 246.177 1232.78 322.384H1253.04ZM1252.96 342.884C1247.56 426.393 1180.53 493.111 1096.88 498.014V477.753C1169.36 472.911 1227.36 415.22 1232.69 342.884H1252.96ZM1199.73 332.494C1199.73 395.032 1149.03 445.729 1086.49 445.729C1027.46 445.729 978.975 400.552 973.729 342.884H996.089C1001.24 388.245 1039.75 423.487 1086.49 423.487C1136.75 423.487 1177.49 382.748 1177.49 332.494C1177.49 311.004 1170.04 291.253 1157.58 275.685L1173.38 259.879C1189.83 279.537 1199.73 304.86 1199.73 332.494ZM996.058 322.384H973.705C978.819 264.583 1027.36 219.26 1086.49 219.26C1114.02 219.26 1139.24 229.078 1158.87 245.404L1143.06 261.214C1127.53 248.874 1107.87 241.502 1086.49 241.502C1039.66 241.502 1001.09 276.889 996.058 322.384ZM1085.99 394.167C1099.98 394.167 1112.89 389.547 1123.28 381.75L1108.9 367.375C1102.44 371.534 1094.75 373.946 1086.49 373.946C1063.6 373.946 1045.04 355.388 1045.04 332.494C1045.04 309.601 1063.6 291.043 1086.49 291.043C1109.39 291.043 1127.95 309.601 1127.95 332.494C1127.95 339.694 1126.11 346.465 1122.88 352.365L1137.44 366.919C1144.21 356.963 1148.17 344.938 1148.17 331.989C1148.17 297.649 1120.33 269.811 1085.99 269.811C1051.65 269.811 1023.81 297.649 1023.81 331.989C1023.81 366.329 1051.65 394.167 1085.99 394.167Z" fill="#3D743F"/>
</svg>
