<svg width="274" height="274" viewBox="0 0 274 274" fill="none" xmlns="http://www.w3.org/2000/svg">
<path fill-rule="evenodd" clip-rule="evenodd" d="M137 274C212.663 274 274 212.663 274 137C274 61.337 212.663 0 137 0C61.337 0 0 61.337 0 137C0 212.663 61.337 274 137 274ZM137.5 254C202.393 254 255 201.393 255 136.5C255 71.6065 202.393 19 137.5 19C72.6065 19 20 71.6065 20 136.5C20 201.393 72.6065 254 137.5 254Z" fill="black"/>
<circle cx="137.5" cy="137.5" r="52.5" fill="#34A3B2"/>
<path fill-rule="evenodd" clip-rule="evenodd" d="M137 242C194.99 242 242 194.99 242 137C242 79.0101 194.99 32 137 32C79.0101 32 32 79.0101 32 137C32 194.99 79.0101 242 137 242ZM137 194C168.48 194 194 168.48 194 137C194 105.52 168.48 80 137 80C105.52 80 80 105.52 80 137C80 168.48 105.52 194 137 194Z" fill="#34A3B2"/>
</svg>
