<svg width="665" height="665" viewBox="0 0 665 665" fill="none" xmlns="http://www.w3.org/2000/svg">
<path fill-rule="evenodd" clip-rule="evenodd" d="M513.156 543.147L635.009 665H31.5356L152.676 543.859C201.11 585.106 263.898 610 332.5 610C401.496 610 464.611 584.82 513.156 543.147ZM610 332.5C610 402.006 584.446 465.543 542.221 514.23L665 637.009V31.5356L543.859 152.676C585.106 201.11 610 263.898 610 332.5ZM27.9913 0L150.77 122.779C199.457 80.5537 262.994 55 332.5 55C402.399 55 466.262 80.844 515.055 123.498L638.553 0H27.9913ZM121.852 151.844L0 29.9915V638.553L123.498 515.055C80.8439 466.262 55 402.399 55 332.5C55 263.504 80.1803 200.389 121.852 151.844ZM96.876 312C106.658 198.073 197.208 107.219 311 96.9646V136.157C218.766 146.143 145.577 219.629 136.051 312H96.876ZM136.051 353C145.577 445.372 218.766 518.859 311 528.844V568.036C197.208 557.782 106.658 466.928 96.876 353H136.051ZM352 529.05V568.208C466.729 558.845 558.285 467.594 568.124 353H528.949C519.354 446.038 445.174 519.918 352 529.05ZM352 96.793V135.951C445.174 145.083 519.354 218.963 528.949 312H568.124C558.285 197.407 466.729 106.156 352 96.793Z" fill="#3D743F"/>
</svg>
