<svg xmlns="http://www.w3.org/2000/svg" viewBox="0 0 332.5 332.5"><defs><style>.cls-1,.cls-2{fill:#3d743f;}.cls-1{fill-rule:evenodd;}</style></defs><g id="Layer_2" data-name="Layer 2"><g id="Layer_1-2" data-name="Layer 1"><path class="cls-1" d="M332.5,0V31.21H332C165.88,31.21,31.22,165.87,31.22,332v.51H0V0Z"/><path class="cls-2" d="M332.5,62.55V84.8h-1a246.79,246.79,0,0,0-167.75,65.46L148.49,135A269,269,0,0,1,332.5,62.55Z"/><path class="cls-2" d="M149.24,164.74A246.83,246.83,0,0,0,83.79,332.5H62.56a269,269,0,0,1,71.47-183Z"/><path class="cls-2" d="M321.38,114.39v22.22c-100.27,5.09-180.68,85.5-185.77,185.77H114.35C119.47,210.16,209.29,120,321.38,114.39Z"/><path class="cls-2" d="M332.5,165.68V185.9H332A146.09,146.09,0,0,0,185.91,332v.51H165.69V332A166.31,166.31,0,0,1,332,165.68Z"/><path class="cls-2" d="M332.5,219.27v22.24h-1a91,91,0,0,0-90.43,80.88H218.71A113.23,113.23,0,0,1,331.49,219.26Z"/><path class="cls-2" d="M332.5,269.83v21.22h-1A41.45,41.45,0,0,0,290,332.49H268.82c0-.17,0-.34,0-.51A62.18,62.18,0,0,1,331,269.81Z"/></g></g></svg>