<svg xmlns="http://www.w3.org/2000/svg" viewBox="0 0 332.5 332.5"><defs><style>.cls-1,.cls-2{fill:#3d743f;}.cls-1{fill-rule:evenodd;}</style></defs><g id="Layer_2" data-name="Layer 2"><g id="Layer_1-2" data-name="Layer 1"><path class="cls-1" d="M332.5,0V332.5H300.28V332C300.28,166,165.89,31.48,0,31.21V0Z"/><path class="cls-2" d="M60.67,332v.51H40.45A41.46,41.46,0,0,0,0,291.05V269.83A62.18,62.18,0,0,1,60.67,332Z"/><path class="cls-2" d="M71.37,245.4,55.56,261.21A90.51,90.51,0,0,0,0,241.51V219.27A112.75,112.75,0,0,1,71.37,245.4Z"/><path class="cls-2" d="M112.23,332.49H90a90.61,90.61,0,0,0-19.91-56.81l15.8-15.8A112.76,112.76,0,0,1,112.23,332.49Z"/><path class="cls-2" d="M165.54,322.38H145.28A146.1,146.1,0,0,0,0,185.89V165.67A166.32,166.32,0,0,1,165.54,322.38Z"/><path class="cls-2" d="M218.39,332.49H195.13c0-104.84-82.25-190.46-185.75-195.87V114.31C125.64,119.22,218.39,215,218.39,332.49Z"/><path class="cls-2" d="M270,332.49H246.7a246.82,246.82,0,0,0-65.56-167.87l16.26-16.26A269,269,0,0,1,270,332.49Z"/><path class="cls-2" d="M182.86,133.91l-16.23,16.23A246.78,246.78,0,0,0,0,84.8V62.55H0A269,269,0,0,1,182.86,133.91Z"/></g></g></svg>