<svg xmlns="http://www.w3.org/2000/svg" viewBox="0 0 332.5 332.5"><defs><style>.cls-1,.cls-2{fill:#3d743f;}.cls-1{fill-rule:evenodd;}</style></defs><g id="Layer_2" data-name="Layer 2"><g id="Layer_1-2" data-name="Layer 1"><path class="cls-1" d="M332.5,0V332.5h-321l-.05-15V300C171.83,293.8,300,161.9,300.28,0Z"/><path class="cls-1" d="M270,0C270,149.08,149.09,269.94,0,269.94H0V247.69C136.35,247.15,246.7,136.46,246.7,0Z"/><path class="cls-2" d="M60.67,0A61.87,61.87,0,0,1,49.94,34.42L35.38,19.87A41.25,41.25,0,0,0,40.45,0Z"/><path class="cls-2" d="M35.78,49.25A61.87,61.87,0,0,1,0,61.65V41.43a41.14,41.14,0,0,0,21.4-6.55Z"/><path class="cls-2" d="M112.23,0A113.22,113.22,0,0,1,0,113.22V91A91,91,0,0,0,90,0Z"/><path class="cls-2" d="M165.46,10.39A166.34,166.34,0,0,1,9.38,165.52V145.26A146.12,146.12,0,0,0,145.19,10.39Z"/><path class="cls-2" d="M146,162.46A217.62,217.62,0,0,1,0,218.38H0V196.14a195.48,195.48,0,0,0,129.72-49.91Z"/><path class="cls-2" d="M218.39,0a217.63,217.63,0,0,1-57.85,148.06l-16.28-16.28A195.4,195.4,0,0,0,195.13,0Z"/></g></g></svg>