<svg xmlns="http://www.w3.org/2000/svg" viewBox="0 0 332.5 332.5"><defs><style>.cls-1{fill:#3d743f;fill-rule:evenodd;}</style></defs><g id="Layer_2" data-name="Layer 2"><g id="Layer_1-2" data-name="Layer 1"><path class="cls-1" d="M332.5,41.43V61.65l-1.51,0A62.17,62.17,0,0,1,268.82,0H290a41.45,41.45,0,0,0,41.45,41.45C331.83,41.45,332.17,41.45,332.5,41.43Z"/><path class="cls-1" d="M332.5,91v22.24h-1A113.25,113.25,0,0,1,218.73,10.38h22.36A91,91,0,0,0,331.49,91Z"/><path class="cls-1" d="M321.38,145.2v20.27A166.33,166.33,0,0,1,165.69,0h20.22A146.1,146.1,0,0,0,321.38,145.2Z"/><path class="cls-1" d="M332.5,196.13v22.25c-117.13,0-212.71-92.21-218.13-208h21.26c5.4,103.5,91,185.75,195.86,185.75Z"/><path class="cls-1" d="M149.14,167.63l-15.22,15.22A269,269,0,0,1,62.56,0H83.79A246.8,246.8,0,0,0,149.14,167.63Z"/><path class="cls-1" d="M332.5,247.68v22.26a269,269,0,0,1-184.13-72.55l15.25-15.25a246.83,246.83,0,0,0,167.87,65.55Z"/><path class="cls-1" d="M323.41,300.15V317.5h0v15H0V0H31.22C31.49,163,161.43,295.6,323.41,300.15Z"/></g></g></svg>