<svg width="665" height="665" viewBox="0 0 665 665" fill="none" xmlns="http://www.w3.org/2000/svg">
<path fill-rule="evenodd" clip-rule="evenodd" d="M665 0H0V665H323.389L323.402 650H323.406V632.648C161.264 628.099 31.2207 495.231 31.2207 331.989C31.2207 165.873 165.884 31.2094 332 31.2094C498.116 31.2094 632.779 165.873 632.779 331.989C632.779 494.118 504.503 626.286 343.906 632.537L343.907 650L343.962 665H665V0ZM332.505 602.438C481.591 602.438 602.449 481.58 602.449 332.494C602.449 261.325 574.907 196.589 529.901 148.362L513.638 164.625C554.335 208.761 579.195 267.725 579.195 332.495C579.195 469.296 468.295 580.195 331.494 580.195C266.725 580.195 207.761 555.336 163.625 514.638L148.372 529.89C196.6 574.896 261.336 602.438 332.505 602.438ZM499.133 150.139L515.359 133.913C467.27 89.6093 403.047 62.5512 332.505 62.5512C261.393 62.5512 196.702 90.0489 148.487 134.992L163.74 150.245C207.864 109.61 266.781 84.7937 331.494 84.7937C396.151 84.7937 455.022 109.567 499.133 150.139ZM149.245 164.74L134.03 149.525C89.6636 197.628 62.562 261.896 62.562 332.494C62.562 403.036 89.6201 467.258 133.923 515.348L149.139 500.133C108.566 456.022 83.7935 397.151 83.7935 332.495C83.7935 267.781 108.61 208.864 149.245 164.74ZM478.445 494.952C439.768 529.721 388.607 550.876 332.505 550.876C215.379 550.876 119.79 458.668 114.367 342.884H135.626C141.027 446.378 226.655 528.633 331.494 528.633C381.711 528.633 427.52 509.761 462.216 478.723L478.445 494.952ZM493.035 480.552C528.947 441.633 550.886 389.626 550.886 332.495C550.886 215.028 458.141 119.223 341.883 114.311V136.626C445.378 142.027 527.633 227.655 527.633 332.494C527.633 383.226 508.372 429.46 476.764 464.281L493.035 480.552ZM321.383 114.392V136.612C221.106 141.704 140.704 222.107 135.612 322.384H114.354C119.468 210.157 209.29 120.015 321.383 114.392ZM498.041 322.384C493.065 235.001 420.628 165.676 332 165.676C240.147 165.676 165.687 240.137 165.687 331.989C165.687 420.275 234.478 492.495 321.384 497.969V477.702C245.655 472.264 185.907 409.104 185.907 331.989C185.907 251.304 251.315 185.896 332 185.896C409.458 185.896 472.836 246.177 477.782 322.384H498.041ZM497.962 342.884C492.562 426.393 425.527 493.111 341.883 498.014V477.753C414.355 472.911 472.36 415.22 477.692 342.884H497.962ZM444.729 332.494C444.729 395.032 394.032 445.729 331.494 445.729C272.459 445.729 223.975 400.552 218.729 342.884H241.089C246.245 388.245 284.754 423.487 331.494 423.487C381.748 423.487 422.486 382.748 422.486 332.494C422.486 311.004 415.036 291.253 402.578 275.685L418.383 259.879C434.829 279.537 444.729 304.86 444.729 332.494ZM241.058 322.384H218.705C223.819 264.583 272.364 219.26 331.494 219.26C359.016 219.26 384.244 229.078 403.868 245.404L388.057 261.214C372.527 248.874 352.872 241.502 331.494 241.502C284.658 241.502 246.087 276.889 241.058 322.384ZM330.989 394.167C344.978 394.167 357.888 389.547 368.276 381.75L353.901 367.375C347.44 371.534 339.749 373.946 331.494 373.946C308.601 373.946 290.042 355.388 290.042 332.494C290.042 309.601 308.601 291.043 331.494 291.043C354.388 291.043 372.946 309.601 372.946 332.494C372.946 339.694 371.111 346.465 367.882 352.365L382.436 366.919C389.208 356.963 393.167 344.938 393.167 331.989C393.167 297.649 365.329 269.811 330.989 269.811C296.649 269.811 268.811 297.649 268.811 331.989C268.811 366.329 296.649 394.167 330.989 394.167Z" fill="#3D743F"/>
</svg>
