<?xml version="1.0" encoding="utf-8"?>
<!-- Generator: Adobe Illustrator 25.2.1, SVG Export Plug-In . SVG Version: 6.00 Build 0)  -->
<svg version="1.1" id="Layer_1" xmlns="http://www.w3.org/2000/svg" xmlns:xlink="http://www.w3.org/1999/xlink" x="0px" y="0px"
	 viewBox="0 0 665 665" style="enable-background:new 0 0 665 665;" xml:space="preserve">
<style type="text/css">
	.st0{fill-rule:evenodd;clip-rule:evenodd;fill:#3D743F;}
	.st1{fill:#00ADD4;}
	.st2{fill:#3D743F;}
	.st3{fill:none;}
</style>
<path class="st0" d="M665,2831.1H0v665h323.4l0-15h0v-17.4c-162.1-4.5-292.2-137.4-292.2-300.7c0-166.1,134.7-300.8,300.8-300.8
	s300.8,134.7,300.8,300.8c0,162.1-128.3,294.3-288.9,300.5l0,17.5l0.1,15h321V2831.1z M332.5,3433.5
	c149.1,0,269.9-120.9,269.9-269.9c0-71.2-27.5-135.9-72.5-184.1l-16.3,16.3c40.7,44.1,65.6,103.1,65.6,167.9
	c0,136.8-110.9,247.7-247.7,247.7c-64.8,0-123.7-24.9-167.9-65.6l-15.3,15.3C196.6,3406,261.3,3433.5,332.5,3433.5z M499.1,2981.2
	l16.2-16.2c-48.1-44.3-112.3-71.4-182.9-71.4c-71.1,0-135.8,27.5-184,72.4l15.3,15.3c44.1-40.6,103-65.5,167.8-65.5
	C396.2,2915.9,455,2940.6,499.1,2981.2z M149.2,2995.8l-15.2-15.2c-44.4,48.1-71.5,112.4-71.5,183c0,70.5,27.1,134.8,71.4,182.9
	l15.2-15.2c-40.6-44.1-65.3-103-65.3-167.6C83.8,3098.9,108.6,3039.9,149.2,2995.8z M478.4,3326c-38.7,34.8-89.8,55.9-145.9,55.9
	c-117.1,0-212.7-92.2-218.1-208h21.3c5.4,103.5,91,185.7,195.9,185.7c50.2,0,96-18.9,130.7-49.9L478.4,3326z M493,3311.6
	c35.9-38.9,57.9-90.9,57.9-148.1c0-117.5-92.7-213.3-209-218.2v22.3c103.5,5.4,185.8,91,185.8,195.9c0,50.7-19.3,97-50.9,131.8
	L493,3311.6z M321.4,2945.5v22.2c-100.3,5.1-180.7,85.5-185.8,185.8h-21.3C119.5,3041.2,209.3,2951.1,321.4,2945.5z M498,3153.5
	c-5-87.4-77.4-156.7-166-156.7c-91.9,0-166.3,74.5-166.3,166.3c0,88.3,68.8,160.5,155.7,166v-20.3c-75.7-5.4-135.5-68.6-135.5-145.7
	c0-80.7,65.4-146.1,146.1-146.1c77.5,0,140.8,60.3,145.8,136.5H498z M498,3174c-5.4,83.5-72.4,150.2-156.1,155.1v-20.3
	c72.5-4.8,130.5-62.5,135.8-134.9H498z M444.7,3163.6c0,62.5-50.7,113.2-113.2,113.2c-59,0-107.5-45.2-112.8-102.8h22.4
	c5.2,45.4,43.7,80.6,90.4,80.6c50.3,0,91-40.7,91-91c0-21.5-7.4-41.2-19.9-56.8l15.8-15.8C434.8,3110.6,444.7,3135.9,444.7,3163.6z
	 M241.1,3153.5h-22.4c5.1-57.8,53.7-103.1,112.8-103.1c27.5,0,52.8,9.8,72.4,26.1l-15.8,15.8c-15.5-12.3-35.2-19.7-56.6-19.7
	C284.7,3072.6,246.1,3108,241.1,3153.5z M331,3225.2c14,0,26.9-4.6,37.3-12.4l-14.4-14.4c-6.5,4.2-14.2,6.6-22.4,6.6
	c-22.9,0-41.5-18.6-41.5-41.5c0-22.9,18.6-41.5,41.5-41.5c22.9,0,41.5,18.6,41.5,41.5c0,7.2-1.8,14-5.1,19.9l14.6,14.6
	c6.8-10,10.7-22,10.7-34.9c0-34.3-27.8-62.2-62.2-62.2s-62.2,27.8-62.2,62.2C268.8,3197.4,296.6,3225.2,331,3225.2z"/>
<rect x="718.9" y="-30.2" class="st1" width="332.5" height="332.5"/>
<rect x="1051.4" y="-30.2" class="st1" width="332.5" height="332.5"/>
<rect x="1051.4" y="302.3" class="st1" width="332.5" height="342.8"/>
<rect x="-650.1" y="197.4" transform="matrix(-1.836970e-16 1 -1 -1.836970e-16 46.0009 680.8799)" class="st1" width="665.3" height="332"/>
<line class="st2" x1="332.5" y1="2823.6" x2="332.5" y2="3592.1"/>
<line class="st2" x1="696.2" y1="3163.6" x2="-72.3" y2="3163.6"/>
<path class="st0" d="M665,1895.3H0v665h323.4l0-15h0V2528c-162.1-4.5-292.2-137.4-292.2-300.7c0-166.1,134.7-300.8,300.8-300.8
	s300.8,134.7,300.8,300.8c0,162.1-128.3,294.3-288.9,300.5l0,17.5l0.1,15h321V1895.3z M332.5,2497.8
	c149.1,0,269.9-120.9,269.9-269.9c0-71.2-27.5-135.9-72.5-184.1l-16.3,16.3c40.7,44.1,65.6,103.1,65.6,167.9
	c0,136.8-110.9,247.7-247.7,247.7c-64.8,0-123.7-24.9-167.9-65.6l-15.3,15.3C196.6,2470.2,261.3,2497.8,332.5,2497.8z M499.1,2045.5
	l16.2-16.2c-48.1-44.3-112.3-71.4-182.9-71.4c-71.1,0-135.8,27.5-184,72.4l15.3,15.3c44.1-40.6,103-65.5,167.8-65.5
	C396.2,1980.1,455,2004.9,499.1,2045.5z M149.2,2060.1l-15.2-15.2c-44.4,48.1-71.5,112.4-71.5,183c0,70.5,27.1,134.8,71.4,182.9
	l15.2-15.2c-40.6-44.1-65.3-103-65.3-167.6C83.8,2163.1,108.6,2104.2,149.2,2060.1z M478.4,2390.3c-38.7,34.8-89.8,55.9-145.9,55.9
	c-117.1,0-212.7-92.2-218.1-208h21.3c5.4,103.5,91,185.7,195.9,185.7c50.2,0,96-18.9,130.7-49.9L478.4,2390.3z M493,2375.9
	c35.9-38.9,57.9-90.9,57.9-148.1c0-117.5-92.7-213.3-209-218.2v22.3c103.5,5.4,185.8,91,185.8,195.9c0,50.7-19.3,97-50.9,131.8
	L493,2375.9z M321.4,2009.7v22.2c-100.3,5.1-180.7,85.5-185.8,185.8h-21.3C119.5,2105.5,209.3,2015.3,321.4,2009.7z M498,2217.7
	c-5-87.4-77.4-156.7-166-156.7c-91.9,0-166.3,74.5-166.3,166.3c0,88.3,68.8,160.5,155.7,166V2373c-75.7-5.4-135.5-68.6-135.5-145.7
	c0-80.7,65.4-146.1,146.1-146.1c77.5,0,140.8,60.3,145.8,136.5H498z M498,2238.2c-5.4,83.5-72.4,150.2-156.1,155.1v-20.3
	c72.5-4.8,130.5-62.5,135.8-134.9H498z M444.7,2227.8c0,62.5-50.7,113.2-113.2,113.2c-59,0-107.5-45.2-112.8-102.8h22.4
	c5.2,45.4,43.7,80.6,90.4,80.6c50.3,0,91-40.7,91-91c0-21.5-7.4-41.2-19.9-56.8l15.8-15.8C434.8,2174.9,444.7,2200.2,444.7,2227.8z
	 M241.1,2217.7h-22.4c5.1-57.8,53.7-103.1,112.8-103.1c27.5,0,52.8,9.8,72.4,26.1l-15.8,15.8c-15.5-12.3-35.2-19.7-56.6-19.7
	C284.7,2136.8,246.1,2172.2,241.1,2217.7z M331,2289.5c14,0,26.9-4.6,37.3-12.4l-14.4-14.4c-6.5,4.2-14.2,6.6-22.4,6.6
	c-22.9,0-41.5-18.6-41.5-41.5c0-22.9,18.6-41.5,41.5-41.5c22.9,0,41.5,18.6,41.5,41.5c0,7.2-1.8,14-5.1,19.9l14.6,14.6
	c6.8-10,10.7-22,10.7-34.9c0-34.3-27.8-62.2-62.2-62.2s-62.2,27.8-62.2,62.2S296.6,2289.5,331,2289.5z"/>
<line class="st2" x1="332.5" y1="1887.9" x2="332.5" y2="2656.4"/>
<line class="st2" x1="696.2" y1="2227.8" x2="-72.3" y2="2227.8"/>
<path class="st0" d="M632.8,1327.8c-0.3,161.9-128.5,293.8-288.9,300v17.5l0.1,15h321v-332.5H632.8z M0,1660.3h323.4l0-15h0V1628
	c-162-4.5-291.9-137.1-292.2-300.1v-0.5c0-166.1,134.7-300.8,300.8-300.8h0.5v-31.2H0V1660.3z M579.2,1327.8
	c0,136.5-110.4,247.1-246.7,247.7c-0.3,0-0.7,0-1,0c-64.8,0-123.7-24.9-167.9-65.6l-15.2,15.2c48.2,45,113,72.6,184.1,72.6h0
	c149.1,0,269.9-120.8,269.9-269.9H579.2z M148.5,1130.3l15.2,15.2c44.1-40.6,103-65.4,167.8-65.4c0.3,0,0.7,0,1,0v-22.2
	C261.4,1057.9,196.7,1085.4,148.5,1130.3z M83.8,1327.8c0-64.7,24.8-123.6,65.5-167.8l-15.2-15.2c-44.4,48.1-71.5,112.4-71.5,183v0
	c0,70.5,27.1,134.8,71.4,182.8l15.2-15.2C108.6,1451.4,83.8,1392.5,83.8,1327.8L83.8,1327.8z M462.2,1474.1
	c-34.5,30.8-79.9,49.7-129.7,49.9h-1c-104.8,0-190.5-82.2-195.9-185.8h-21.3c5.4,115.8,101,208,218.1,208h0
	c56.1,0,107.3-21.1,145.9-55.9L462.2,1474.1z M527.6,1327.8c0,50.7-19.3,97-50.9,131.8l16.3,16.3c35.9-38.9,57.9-90.9,57.9-148.1
	H527.6z M114.3,1317.7h21.3c5.1-100.3,85.5-180.7,185.8-185.8v-22.2C209.3,1115.4,119.5,1205.5,114.3,1317.7z M332,1161
	c-91.8,0-166.3,74.5-166.3,166.3v0.5c0.3,88.1,69,160,155.7,165.5V1473c-75.6-5.4-135.2-68.3-135.5-145.2v-0.5
	c0-80.7,65.4-146.1,146.1-146.1h0.5V1161H332z M477.7,1338.2c-5.3,72.3-63.3,130-135.8,134.9v20.3c83.7-4.9,150.7-71.6,156.1-155.1
	H477.7z M422.5,1327.8c0,49.9-40.2,90.4-90,91c-0.3,0-0.7,0-1,0c-46.7,0-85.2-35.2-90.4-80.6h-22.4c5.2,57.7,53.7,102.9,112.8,102.9
	c0.3,0,0.7,0,1,0c62.1-0.5,112.2-51,112.2-113.2H422.5z M331.5,1214.6c-59.1,0-107.7,45.3-112.8,103.1h22.3
	c5-45.5,43.6-80.9,90.4-80.9c0.3,0,0.7,0,1,0v-22.2C332.2,1214.6,331.8,1214.6,331.5,1214.6z M353.9,1362.7
	c-6.2,4-13.5,6.4-21.4,6.6c-0.3,0-0.7,0-1,0c-22.9,0-41.4-18.5-41.5-41.4v0c0-22.9,18.6-41.4,41.5-41.4c0.3,0,0.7,0,1,0v-21.2
	c-0.5,0-1,0-1.5,0c-34.3,0-62.2,27.8-62.2,62.2c0,0.2,0,0.3,0,0.5c0.3,34.1,28,61.7,62.2,61.7c0.5,0,1,0,1.5,0
	c13.4-0.3,25.8-4.9,35.8-12.4L353.9,1362.7z M373,1327.8c0,7.2-1.8,14-5.1,19.9l14.6,14.6c6.7-9.8,10.6-21.7,10.7-34.4H373z"/>
<polyline class="st3" points="332.5,1756.4 332.5,1597.8 332.5,1575.5 332.5,1546.2 332.5,1524 332.5,1441.1 332.5,1418.8 
	332.5,1389.5 332.5,1369.3 332.5,1327.8 332.5,1286.4 "/>
<line class="st3" x1="332.5" y1="1214.6" x2="332.5" y2="1181.2"/>
<line class="st3" x1="332.5" y1="1057.9" x2="332.5" y2="1026.6"/>
<line class="st3" x1="332.5" y1="995.3" x2="332.5" y2="987.9"/>
<line class="st3" x1="332.5" y1="1161" x2="332.5" y2="1080.1"/>
<line class="st3" x1="332.5" y1="1265.2" x2="332.5" y2="1236.9"/>
<polyline class="st3" points="-72.3,1327.8 0,1327.8 31.2,1327.8 62.6,1327.8 83.8,1327.8 165.7,1327.8 185.9,1327.8 268.8,1327.8 
	290,1327.8 332.5,1327.8 373,1327.8 "/>
<line class="st3" x1="422.5" y1="1327.8" x2="393.2" y2="1327.8"/>
<line class="st3" x1="527.6" y1="1327.8" x2="444.7" y2="1327.8"/>
<g>
	<path class="st0" d="M1028.7,1355.2v332.5h-32.2v-0.5c0-166-134.4-300.5-300.3-300.8v-31.2H1028.7z"/>
	<path class="st2" d="M756.9,1687.1v0.5h-20.2v0c0-22.6-18-40.9-40.5-41.4V1625C729.9,1625.8,756.9,1653.3,756.9,1687.1z"/>
	<path class="st2" d="M767.6,1600.6l-15.8,15.8c-15.3-12.2-34.6-19.5-55.6-19.7v-22.2C723.3,1574.7,748.2,1584.4,767.6,1600.6z"/>
	<path class="st2" d="M808.4,1687.6L808.4,1687.6l-22.2,0v0c0-21.5-7.5-41.2-19.9-56.8l15.8-15.8
		C798.5,1634.7,808.4,1660,808.4,1687.6z"/>
	<path class="st2" d="M861.7,1677.5h-20.3c-4.9-76-68.1-136.2-145.3-136.5v-20.2C784.6,1521.1,856.8,1590.3,861.7,1677.5z"/>
	<path class="st2" d="M914.6,1687.6L914.6,1687.6l-23.3,0v0c0-104.8-82.2-190.5-185.8-195.9v-22.3
		C821.8,1474.4,914.6,1570.2,914.6,1687.6z"/>
	<path class="st2" d="M966.2,1687.6L966.2,1687.6l-23.2,0v0c0-64.8-24.9-123.7-65.6-167.9l16.3-16.3
		C938.6,1551.7,966.2,1616.5,966.2,1687.6z"/>
	<path class="st2" d="M879.1,1489.1l-16.2,16.2c-43.9-40.4-102.4-65.1-166.6-65.3v-22.2h0C766.8,1417.7,831,1444.8,879.1,1489.1z"/>
</g>
<line class="st3" x1="696.2" y1="1327.8" x2="665" y2="1327.8"/>
<line class="st3" x1="632.8" y1="1327.8" x2="602.5" y2="1327.8"/>
<line class="st3" x1="579.2" y1="1327.8" x2="550.9" y2="1327.8"/>
<path class="st0" d="M332.5,269.8V291c22.4,0.5,40.5,18.9,40.5,41.4v0c0,7.2-1.8,14-5.1,19.9l14.6,14.6c6.7-9.8,10.6-21.7,10.7-34.4
	V332C393.2,298.2,366.2,270.6,332.5,269.8z M332.5,373.9c-0.3,0-0.7,0-1,0c-22.9,0-41.4-18.5-41.5-41.5h-21.2
	c0.3,34.1,28,61.7,62.2,61.7c0.5,0,1,0,1.5,0c13.4-0.3,25.8-4.9,35.8-12.4l-14.4-14.4C347.7,371.4,340.4,373.7,332.5,373.9z
	 M332.5,219.3v22.2c21,0.2,40.3,7.5,55.6,19.7l15.8-15.8C384.5,229.3,359.6,219.5,332.5,219.3z M418.4,259.9l-15.8,15.8
	c12.5,15.6,19.9,35.3,19.9,56.8v0c0,49.9-40.2,90.4-90,91c-0.3,0-0.7,0-1,0c-46.7,0-85.2-35.2-90.4-80.6h-22.4
	c5.2,57.7,53.7,102.9,112.8,102.9c0.3,0,0.7,0,1,0c62.1-0.5,112.2-51,112.2-113.2v0C444.7,304.9,434.8,279.5,418.4,259.9z
	 M477.7,342.9c-5.3,72.3-63.3,130-135.8,134.9V498c83.7-4.9,150.7-71.6,156.1-155.1H477.7z M332.5,165.7v20.2
	c77.2,0.3,140.3,60.4,145.3,136.5H498C493.1,235.2,420.9,165.9,332.5,165.7z M185.9,332.5h-20.2c0.3,88.1,69,160,155.7,165.5v-20.3
	C245.8,472.3,186.2,409.4,185.9,332.5z M341.9,114.3v22.3c103.5,5.4,185.8,91,185.8,195.9v0c0,50.7-19.3,97-50.9,131.8l16.3,16.3
	c35.9-38.9,57.9-90.9,57.9-148C550.9,215,458.1,119.2,341.9,114.3z M462.2,478.7c-34.5,30.8-79.9,49.7-129.7,49.9h-1
	c-104.8,0-190.5-82.2-195.9-185.8h-21.3c5.4,115.8,101,208,218.1,208h0c56.1,0,107.3-21.2,145.9-55.9L462.2,478.7z M83.8,332.5H62.6
	c0,70.5,27.1,134.8,71.4,182.9l15.2-15.2C108.6,456,83.8,397.1,83.8,332.5z M332.5,62.5L332.5,62.5l0,22.2
	c64.3,0.2,122.8,25,166.6,65.3l16.2-16.2C467.3,89.6,403,62.5,332.5,62.5z M529.9,148.4l-16.3,16.3c40.7,44.1,65.6,103.1,65.6,167.9
	c0,136.5-110.4,247.2-246.7,247.7c-0.3,0-0.7,0-1,0c-64.8,0-123.7-24.9-167.9-65.6l-15.2,15.2c48.2,45,113,72.5,184.1,72.5h0
	c149.1,0,269.9-120.8,269.9-269.9v0C602.5,261.3,574.9,196.6,529.9,148.4z M332.5,0v31.2C498.4,31.5,632.8,166,632.8,332v0.5
	c-0.3,161.9-128.5,293.8-288.9,300V650l0.1,15h321V0H332.5z M31.2,332.5H0V665h323.4l0-15h0v-17.3
	C161.4,628.1,31.5,495.5,31.2,332.5z"/>
<path class="st0" d="M332.5,0v31.2H332C165.9,31.2,31.2,165.9,31.2,332v0.5H0V0H332.5z"/>
<line class="st3" x1="332.5" y1="62.5" x2="332.5" y2="31.2"/>
<line class="st3" x1="332.5" y1="219.3" x2="332.5" y2="185.9"/>
<polyline class="st3" points="332.5,761.1 332.5,602.4 332.5,580.2 332.5,550.9 332.5,528.6 332.5,445.7 332.5,423.5 332.5,394.1 
	332.5,373.9 332.5,332.5 332.5,291 "/>
<line class="st3" x1="332.5" y1="269.8" x2="332.5" y2="241.5"/>
<line class="st3" x1="332.5" y1="165.7" x2="332.5" y2="84.8"/>
<line class="st3" x1="332.5" y1="0" x2="332.5" y2="-7.5"/>
<line class="st3" x1="0" y1="332.5" x2="-72.3" y2="332.5"/>
<path class="st2" d="M332.5,62.5v22.2c-0.3,0-0.7,0-1,0c-64.7,0-123.6,24.8-167.8,65.5L148.5,135C196.7,90,261.4,62.5,332.5,62.5z"
	/>
<path class="st2" d="M149.2,164.7c-40.6,44.1-65.5,103-65.5,167.8H62.6v0c0-70.6,27.1-134.9,71.5-183L149.2,164.7z"/>
<path class="st2" d="M321.4,114.4v22.2c-100.3,5.1-180.7,85.5-185.8,185.8h-21.3C119.5,210.2,209.3,120,321.4,114.4z"/>
<path class="st2" d="M332.5,165.7v20.2H332c-80.7,0-146.1,65.4-146.1,146.1v0.5h-20.2V332c0-91.8,74.5-166.3,166.3-166.3H332.5z"/>
<line class="st3" x1="62.6" y1="332.5" x2="31.2" y2="332.5"/>
<path class="st2" d="M332.5,219.3v22.2c-0.3,0-0.7,0-1,0c-46.8,0-85.4,35.4-90.4,80.9h-22.3c5.1-57.8,53.6-103.1,112.8-103.1
	C331.8,219.3,332.2,219.3,332.5,219.3z"/>
<path class="st2" d="M332.5,269.8V291c-0.3,0-0.7,0-1,0c-22.9,0-41.5,18.6-41.5,41.4v0h-21.2c0-0.2,0-0.3,0-0.5
	c0-34.3,27.8-62.2,62.2-62.2C331.5,269.8,332,269.8,332.5,269.8z"/>
<polyline class="st3" points="696.2,332.5 665,332.5 632.8,332.5 602.5,332.5 579.2,332.5 550.9,332.5 527.6,332.5 444.7,332.5 
	422.5,332.5 393.2,332.5 373,332.5 332.5,332.5 290,332.5 "/>
<line class="st3" x1="268.8" y1="332.5" x2="185.9" y2="332.5"/>
<line class="st3" x1="165.7" y1="332.5" x2="83.8" y2="332.5"/>
</svg>
