<svg width="312" height="312" viewBox="0 0 312 312" fill="none" xmlns="http://www.w3.org/2000/svg">
<path fill-rule="evenodd" clip-rule="evenodd" d="M247.347 0H291.922L0 291.922V247.347L247.347 0ZM63.9892 311.099H18.7638L311.099 18.7638V63.9892L63.9892 311.099ZM101.93 311.099H142.672L311.099 142.672V101.93L101.93 311.099ZM220.063 311.099H180.613L311.099 180.613V220.063L220.063 311.099ZM258.004 311.099H311.099V258.004L258.004 311.099ZM209.406 0H163.554L0 163.554V209.406L209.406 0ZM85.2775 0H125.613L0 125.613V85.2775L85.2775 0ZM47.3364 0H0V47.3364L47.3364 0Z" fill="#3D743F"/>
</svg>
