<svg width="310" height="664" viewBox="0 0 310 664" fill="none" xmlns="http://www.w3.org/2000/svg">
<path fill-rule="evenodd" clip-rule="evenodd" d="M222 664L87 664L87 254.452C105.527 269.193 128.985 278 154.5 278C180.015 278 203.473 269.193 222 254.452L222 664ZM262.999 169C262.73 109.307 214.256 61 154.5 61C95.0778 61 46.8127 108.769 46.0101 168L46 168L46 169.418C46 169.445 46 169.473 46 169.5C46 169.527 46 169.555 46 169.582L46 664L0 664L-4.44982e-05 155C-5.19819e-05 69.3959 69.3958 2.10343e-05 155 1.35505e-05C240.604 6.06678e-06 310 69.3959 310 155L310 664L263 664L263 169.5L263 169L262.999 169Z" fill="#3D743F"/>
<circle cx="155" cy="169" r="57" transform="rotate(180 155 169)" fill="#3D743F"/>
</svg>
