<svg width="72" height="510" viewBox="0 0 72 510" fill="none" xmlns="http://www.w3.org/2000/svg">
<path fill-rule="evenodd" clip-rule="evenodd" d="M19.7973 510H50.7851L50.7849 58.0773C46.542 61.4769 41.157 63.5103 35.2972 63.5103C29.4317 63.5103 24.0421 61.473 19.7973 58.0675L19.7973 510ZM60.2532 38.7345H60.0848V38.7227C60.0848 25.0328 48.987 13.9351 35.2972 13.9351C21.6073 13.9351 10.5096 25.0328 10.5096 38.7227L10.5096 38.7345H10.329L10.329 510H3.33786e-06L0 35.291C0.0645885 15.7893 15.8939 0 35.4109 0C54.9278 0 70.757 15.7893 70.8216 35.291H71.0126V510H60.2535L60.2532 38.7345ZM35.4115 25.5867C28.2196 25.5867 22.3895 31.4167 22.3895 38.6086C22.3895 45.8005 28.2196 51.6307 35.4115 51.6307C42.6034 51.6307 48.4336 45.8005 48.4336 38.6086C48.4336 31.4167 42.6034 25.5867 35.4115 25.5867Z" fill="#3D743F"/>
</svg>
